<svg width="10" height="10" viewBox="0 0 10 10" fill="none" xmlns="http://www.w3.org/2000/svg">
<path d="M1.73917 0.669324L1.7471 0.67091L1.7551 0.67211C1.81439 0.681004 1.90239 0.718561 2.01446 0.789882C2.10699 0.848762 2.1919 0.914491 2.27109 0.975782C2.28465 0.986282 2.29805 0.996652 2.31129 1.00684L2.31113 1.00704L2.32185 1.01463C2.57065 1.19087 2.7924 1.40324 3.03129 1.63204C3.06502 1.66434 3.0991 1.69698 3.13364 1.72989C3.29031 1.88657 3.40536 2.0036 3.49843 2.14805C3.61076 2.32636 3.61244 2.43781 3.58948 2.53284C3.55891 2.65932 3.47689 2.79318 3.3338 3.01125C3.28354 3.08632 3.15481 3.2394 3.02255 3.38985C2.95938 3.46171 2.9 3.52782 2.85637 3.57602L2.80449 3.63305L2.79038 3.64846L2.78678 3.65238L2.78591 3.65333L2.78571 3.65354L2.78568 3.65358L2.78568 3.65358L2.78567 3.65359L2.77781 3.66212L2.77056 3.67118C2.67932 3.78525 2.69354 3.9109 2.69647 3.9367L2.69651 3.93709C2.70155 3.98168 2.71345 4.01995 2.7217 4.0438C2.73914 4.09415 2.76436 4.14711 2.78829 4.19363C2.83784 4.28995 2.90676 4.40624 2.975 4.51641C3.11107 4.73609 3.26243 4.96023 3.30101 5.0144C3.53345 5.34254 3.8058 5.65554 4.10446 5.94063C4.40505 6.22756 4.74295 6.48406 5.0895 6.71099C5.15418 6.75634 5.3829 6.90696 5.60566 7.04061C5.72088 7.10974 5.84305 7.17952 5.94442 7.22881C5.99319 7.25253 6.04987 7.27783 6.1043 7.29433C6.13003 7.30213 6.17249 7.31342 6.22203 7.31569C6.25635 7.31727 6.38668 7.32015 6.49367 7.21318L6.4937 7.21316L6.88096 6.8259C6.9383 6.76855 6.995 6.70365 7.04417 6.64737C7.05044 6.64018 7.0566 6.63314 7.06262 6.62626C7.11953 6.56127 7.16942 6.50564 7.21998 6.45767C7.32282 6.3601 7.39012 6.33179 7.44421 6.32954C7.45969 6.3292 7.51158 6.33671 7.60915 6.38541C7.70175 6.43163 7.80727 6.50049 7.92046 6.58406C8.03265 6.66689 8.14389 6.75776 8.24953 6.84509C8.26217 6.85554 8.27485 6.86604 8.28753 6.87655C8.37538 6.9493 8.46315 7.02199 8.53581 7.07588C8.73268 7.22681 8.92865 7.37879 9.0826 7.55215C9.23367 7.72227 9.31931 7.8859 9.33295 8.05404C9.3346 8.12776 9.30725 8.22372 9.23985 8.34072C9.17235 8.45789 9.07851 8.57219 8.98419 8.67241L8.98417 8.67238L8.98078 8.67609C8.29936 9.42239 7.37509 9.44134 6.36129 9.08199C5.34528 8.72187 4.33514 8.00846 3.62378 7.45093C2.83216 6.8303 2.02044 6.05906 1.44765 5.18449C0.876198 4.31194 0.555709 3.35793 0.701435 2.35342C0.747246 2.05077 0.869609 1.67095 1.05821 1.34017C1.2492 1.00521 1.48232 0.76472 1.72759 0.667666C1.73157 0.668019 1.73559 0.668608 1.73917 0.669324Z" fill="white" stroke="white" stroke-width="0.666667"/>
</svg>
