<svg width="25" height="25" viewBox="0 0 25 25" fill="none" xmlns="http://www.w3.org/2000/svg">
<path d="M2.98375 14.5324C3.06618 14.5211 3.14989 14.5404 3.21901 14.5867C3.28813 14.633 3.33785 14.7031 3.35875 14.7836C3.44527 15.1273 3.55297 15.4653 3.68125 15.7957L6.81625 12.6611C6.65575 7.87835 12.4308 5.27623 15.9089 8.47648L18.3273 6.05773C18.1376 5.90717 17.9986 5.70218 17.9289 5.47031C17.8592 5.23843 17.8621 4.99077 17.9373 4.7606C17.9871 4.6222 18.0638 4.49499 18.1629 4.38624C18.262 4.2775 18.3816 4.18935 18.5148 4.12685C18.4017 4.09365 18.2836 4.08095 18.166 4.08935C18.0106 4.09993 17.8591 4.14314 17.7215 4.21615C17.5839 4.28916 17.4632 4.39034 17.3673 4.5131C17.3159 4.5791 17.2424 4.62423 17.1603 4.6401C17.0783 4.65596 16.9932 4.64148 16.921 4.59935C16.1766 4.15625 15.3722 3.82281 14.5326 3.60935C14.4519 3.58882 14.3816 3.53918 14.3352 3.46996C14.2888 3.40075 14.2697 3.31684 14.2814 3.23435C14.2992 3.08002 14.2844 2.92366 14.2378 2.77545C14.1912 2.62725 14.1139 2.49051 14.011 2.37416C13.908 2.2578 13.7817 2.16444 13.6403 2.10014C13.4989 2.03584 13.3455 2.00205 13.1901 2.00098H11.308C11.1526 2.00205 10.9992 2.03584 10.8577 2.10016C10.7163 2.16448 10.59 2.25789 10.487 2.37428C10.384 2.49068 10.3068 2.62746 10.2602 2.77571C10.2136 2.92397 10.1988 3.08037 10.2168 3.23473C10.2293 3.31732 10.2104 3.4016 10.1639 3.47099C10.1174 3.54039 10.0466 3.58988 9.9655 3.60973C9.12592 3.82319 8.32152 4.15662 7.57713 4.59973C7.50492 4.64186 7.41987 4.65634 7.33779 4.64047C7.25571 4.62461 7.18218 4.57948 7.13088 4.51348C7.03493 4.39116 6.91416 4.29056 6.77653 4.21828C6.6389 4.146 6.48752 4.10368 6.33236 4.09412C6.17719 4.08455 6.02176 4.10795 5.8763 4.16278C5.73083 4.21761 5.59862 4.30262 5.48838 4.41223L4.16125 5.73935C4.05037 5.84891 3.96422 5.98094 3.90859 6.12656C3.85296 6.27218 3.82914 6.42802 3.83873 6.5836C3.84832 6.73919 3.8911 6.89092 3.96419 7.02861C4.03729 7.16629 4.139 7.28674 4.2625 7.38185C4.3285 7.43316 4.37363 7.50669 4.3895 7.58877C4.40536 7.67085 4.39088 7.75589 4.34875 7.8281C3.90564 8.57249 3.57221 9.37689 3.35875 10.2165C3.33845 10.2974 3.28885 10.3678 3.21958 10.4142C3.1503 10.4606 3.06627 10.4797 2.98375 10.4677C2.82917 10.4484 2.67225 10.4622 2.52343 10.5082C2.3746 10.5542 2.23726 10.6314 2.12056 10.7346C2.00386 10.8378 1.91046 10.9646 1.84657 11.1067C1.78267 11.2488 1.74976 11.4028 1.75 11.5586V13.4407C1.75096 13.5962 1.78467 13.7496 1.84895 13.8911C1.91324 14.0327 2.00664 14.159 2.12306 14.262C2.23948 14.365 2.37631 14.4423 2.52462 14.4888C2.67292 14.5353 2.82937 14.5504 2.98375 14.5324ZM21.5144 10.4674C21.4319 10.4793 21.3478 10.4603 21.2785 10.4139C21.2093 10.3674 21.1597 10.297 21.1394 10.2161C21.0529 9.87227 20.9452 9.53412 20.8169 9.2036L17.6823 12.3386C17.8443 17.1161 12.0685 19.7272 8.59338 16.5232L5.00463 20.1041L5.48838 20.5879C5.59862 20.6975 5.73083 20.7825 5.8763 20.8373C6.02176 20.8921 6.17719 20.9155 6.33236 20.906C6.48752 20.8964 6.6389 20.8541 6.77653 20.7818C6.91416 20.7095 7.03493 20.6089 7.13088 20.4866C7.18218 20.4206 7.25571 20.3755 7.33779 20.3596C7.41987 20.3437 7.50492 20.3582 7.57713 20.4004C8.32163 20.8435 9.12616 21.1769 9.96588 21.3904C10.0466 21.411 10.1168 21.4606 10.1632 21.5298C10.2096 21.599 10.2288 21.6829 10.2171 21.7654C10.1993 21.9197 10.2141 22.076 10.2607 22.2242C10.3072 22.3723 10.3845 22.5091 10.4874 22.6254C10.5903 22.7418 10.7166 22.8351 10.8579 22.8995C10.9993 22.9638 11.1527 22.9976 11.308 22.9987H13.1905C13.3459 22.9977 13.4993 22.9639 13.6408 22.8995C13.7822 22.8352 13.9085 22.7418 14.0115 22.6254C14.1145 22.509 14.1917 22.3722 14.2383 22.224C14.2849 22.0757 14.2997 21.9193 14.2818 21.765C14.2692 21.6824 14.2881 21.5981 14.3346 21.5287C14.3811 21.4593 14.4519 21.4098 14.533 21.39C15.3725 21.1765 16.1767 20.8431 16.921 20.4C16.9932 20.3578 17.0783 20.3434 17.1603 20.3592C17.2424 20.3751 17.3159 20.4202 17.3673 20.4862C17.4632 20.6085 17.584 20.7091 17.7216 20.7814C17.8592 20.8537 18.0106 20.896 18.1658 20.9056C18.3209 20.9152 18.4764 20.8918 18.6218 20.8369C18.7673 20.7821 18.8995 20.6971 19.0098 20.5875L20.3373 19.2604C20.4481 19.1508 20.5343 19.0188 20.5899 18.8731C20.6455 18.7275 20.6694 18.5717 20.6598 18.4161C20.6502 18.2605 20.6074 18.1088 20.5343 17.9711C20.4612 17.8334 20.3595 17.713 20.236 17.6179C20.17 17.5665 20.1249 17.493 20.109 17.4109C20.0931 17.3289 20.1076 17.2438 20.1498 17.1716C20.5929 16.4272 20.9263 15.6228 21.1398 14.7832C21.1607 14.7028 21.2104 14.6329 21.2794 14.5866C21.3484 14.5403 21.432 14.5209 21.5144 14.532C21.669 14.5513 21.8259 14.5375 21.9748 14.4915C22.1236 14.4454 22.261 14.3682 22.3777 14.265C22.4944 14.1618 22.5878 14.0349 22.6517 13.8927C22.7155 13.7506 22.7484 13.5965 22.7481 13.4407V11.5586C22.7471 11.4032 22.7134 11.2497 22.6491 11.1083C22.5848 10.9668 22.4914 10.8404 22.3749 10.7375C22.2585 10.6345 22.1217 10.5572 21.9734 10.5107C21.8252 10.4641 21.6687 10.4494 21.5144 10.4674Z" fill="#FF6B00"/>
<path d="M13.5182 14.9109C13.5529 14.9462 13.5944 14.9742 13.6401 14.9934C13.6858 15.0125 13.7349 15.0223 13.7844 15.0223C13.834 15.0223 13.883 15.0125 13.9287 14.9934C13.9744 14.9742 14.0159 14.9462 14.0507 14.9109L21.1487 7.81218L21.8012 8.46843C21.8519 8.51805 21.9156 8.55243 21.9849 8.56763C22.0542 8.58283 22.1264 8.57824 22.1933 8.5544C22.2601 8.53055 22.3189 8.4884 22.3629 8.43276C22.407 8.37712 22.4345 8.31021 22.4424 8.23968L22.7499 4.86505C22.7543 4.81026 22.7468 4.75515 22.7278 4.70356C22.7088 4.65196 22.6789 4.60511 22.64 4.56623C22.6011 4.52736 22.5543 4.49739 22.5027 4.47841C22.4511 4.45943 22.396 4.45189 22.3412 4.4563L18.9662 4.7638C18.8958 4.77106 18.8288 4.79798 18.773 4.84148C18.7172 4.88498 18.6747 4.94331 18.6504 5.00981C18.6262 5.0763 18.6211 5.14827 18.6358 5.2175C18.6506 5.28673 18.6845 5.35042 18.7337 5.4013L19.3899 6.05755L13.7848 11.6634L11.5948 9.47343C11.5601 9.43872 11.5189 9.41119 11.4736 9.3924C11.4283 9.37362 11.3797 9.36395 11.3306 9.36395C11.2815 9.36395 11.2329 9.37362 11.1876 9.3924C11.1423 9.41119 11.1011 9.43872 11.0664 9.47343L1.86091 18.6756C1.79224 18.7472 1.75391 18.8426 1.75391 18.9418C1.75391 19.041 1.79224 19.1364 1.86091 19.2081L3.09091 20.4343C3.1256 20.4691 3.16681 20.4966 3.21217 20.5155C3.25754 20.5343 3.30617 20.544 3.35528 20.544C3.4044 20.544 3.45303 20.5343 3.49839 20.5155C3.54376 20.4966 3.58497 20.4691 3.61966 20.4343L11.3319 12.7247L13.5182 14.9109Z" fill="#FF6B00"/>
</svg>
