<svg width="24" height="25" viewBox="0 0 24 25" fill="none" xmlns="http://www.w3.org/2000/svg">
<path d="M18.5002 21.875C18.5997 21.875 18.6951 21.8355 18.7654 21.7652C18.8357 21.6948 18.8752 21.5995 18.8752 21.5C18.8752 21.4005 18.8357 21.3052 18.7654 21.2348C18.6951 21.1645 18.5997 21.125 18.5002 21.125H16.008L15.45 18.8713H8.55L7.992 21.125H5.49975C5.40029 21.125 5.30491 21.1645 5.23458 21.2348C5.16426 21.3052 5.12475 21.4005 5.12475 21.5C5.12475 21.5995 5.16426 21.6948 5.23458 21.7652C5.30491 21.8355 5.40029 21.875 5.49975 21.875H18.5002ZM21.0158 3.125H2.98425C2.69012 3.1252 2.40809 3.24213 2.20011 3.45011C1.99213 3.65809 1.8752 3.94012 1.875 4.23425V17.0128C1.8752 17.3069 1.99213 17.5889 2.20011 17.7969C2.40809 18.0049 2.69012 18.1218 2.98425 18.122H21.0165C21.3106 18.1218 21.5927 18.0049 21.8006 17.7969C22.0086 17.5889 22.1256 17.3069 22.1257 17.0128V4.23425C22.1252 3.94011 22.008 3.6582 21.7999 3.45028C21.5919 3.24237 21.3099 3.1254 21.0158 3.125ZM7.78725 13.0602C7.82325 13.0602 7.857 13.0677 7.89225 13.0707L9.48675 9.87425C9.30564 9.67844 9.20472 9.42172 9.204 9.155C9.204 8.56325 9.6855 8.08175 10.2765 8.08175C10.8397 8.08175 11.298 8.51975 11.3407 9.07175L13.5187 9.713C13.6402 9.54925 13.8061 9.42373 13.9967 9.35129C14.1873 9.27885 14.3947 9.26253 14.5942 9.30425L16.0208 7.05875C15.8792 6.87403 15.802 6.648 15.801 6.41525C15.801 5.8235 16.2825 5.342 16.8743 5.342C17.4653 5.342 17.9468 5.8235 17.9468 6.41525C17.9465 6.57484 17.9106 6.73237 17.8418 6.87637C17.773 7.02037 17.673 7.14723 17.549 7.24772C17.425 7.34822 17.2802 7.41981 17.1251 7.45731C16.97 7.49481 16.8084 7.49727 16.6522 7.4645L15.2257 9.71C15.3623 9.89 15.4462 10.1112 15.4462 10.3542C15.4462 10.946 14.9648 11.4275 14.3738 11.4275C14.1036 11.4267 13.8438 11.3238 13.6463 11.1396C13.4488 10.9553 13.3282 10.7032 13.3088 10.4338L11.133 9.79325C11.0339 9.92749 10.9047 10.0367 10.7559 10.1121C10.607 10.1875 10.4426 10.227 10.2758 10.2275C10.2338 10.2275 10.1947 10.22 10.1542 10.2155L8.5665 13.4C8.74725 13.592 8.8605 13.8492 8.8605 14.1335C8.8605 14.7245 8.379 15.206 7.78725 15.206C7.19625 15.206 6.71475 14.7245 6.71475 14.1335C6.71475 13.5417 7.19625 13.0602 7.78725 13.0602ZM18 16.2477H6C5.90054 16.2477 5.80516 16.2082 5.73484 16.1379C5.66451 16.0676 5.625 15.9722 5.625 15.8727V5.37275C5.625 5.27329 5.66451 5.17791 5.73484 5.10758C5.80516 5.03726 5.90054 4.99775 6 4.99775C6.09946 4.99775 6.19484 5.03726 6.26517 5.10758C6.33549 5.17791 6.375 5.27329 6.375 5.37275V15.4977H18C18.0995 15.4977 18.1948 15.5373 18.2652 15.6076C18.3355 15.6779 18.375 15.7733 18.375 15.8727C18.375 15.9722 18.3355 16.0676 18.2652 16.1379C18.1948 16.2082 18.0995 16.2477 18 16.2477Z" fill="#9E00FF"/>
</svg>
