<svg width="25" height="25" viewBox="0 0 25 25" fill="none" xmlns="http://www.w3.org/2000/svg">
<path d="M16.837 3.02161V4.84186C16.6514 4.77272 16.4914 4.64849 16.3784 4.48581C16.2654 4.32314 16.2048 4.1298 16.2048 3.93173C16.2048 3.73366 16.2654 3.54032 16.3784 3.37765C16.4914 3.21497 16.6514 3.09074 16.837 3.02161ZM17.5147 7.46161C17.7003 7.39248 17.8603 7.26825 17.9734 7.10557C18.0864 6.94289 18.1469 6.74954 18.1469 6.55146C18.1469 6.35337 18.0864 6.16003 17.9734 5.99735C17.8603 5.83467 17.7003 5.71043 17.5147 5.64131V7.46161ZM20.5294 8.59532C19.7536 9.37166 18.7327 9.85499 17.6406 9.96296C16.5484 10.0709 15.4526 9.79684 14.5399 9.18742C13.6272 8.57799 12.954 7.67093 12.6351 6.6208C12.3162 5.57068 12.3713 4.44247 12.791 3.42842C13.2108 2.41437 13.9691 1.57723 14.9369 1.05966C15.9047 0.542083 17.022 0.376099 18.0984 0.589988C19.1748 0.803878 20.1438 1.38441 20.8402 2.23265C21.5365 3.08089 21.9172 4.14436 21.9174 5.24184C21.9181 5.86466 21.7959 6.48149 21.5577 7.05697C21.3195 7.63244 20.9701 8.15522 20.5294 8.59532ZM17.5147 4.93781V3.02156C17.7002 3.09088 17.8601 3.21517 17.9731 3.37781C18.086 3.54045 18.1467 3.7337 18.1469 3.93173C18.1469 4.02159 18.1826 4.10777 18.2461 4.17131C18.3097 4.23485 18.3959 4.27054 18.4857 4.27054C18.5756 4.27054 18.6618 4.23485 18.7253 4.17131C18.7888 4.10777 18.8245 4.02159 18.8245 3.93173C18.824 3.55341 18.6937 3.18673 18.4553 2.89301C18.2168 2.59928 17.8848 2.39632 17.5147 2.31806V1.74689C17.5147 1.65703 17.479 1.57085 17.4154 1.50731C17.3519 1.44377 17.2657 1.40807 17.1758 1.40807C17.086 1.40807 16.9998 1.44377 16.9363 1.50731C16.8727 1.57085 16.837 1.65703 16.837 1.74689V2.31806C16.4667 2.39589 16.1344 2.59874 15.8959 2.89256C15.6574 3.18638 15.5272 3.5533 15.5272 3.93173C15.5272 4.31016 15.6574 4.67708 15.8959 4.9709C16.1344 5.26472 16.4667 5.46757 16.837 5.5454V7.46161C16.6515 7.39231 16.4916 7.26805 16.3786 7.10544C16.2656 6.94282 16.2049 6.74959 16.2047 6.55157C16.2036 6.46241 16.1675 6.37726 16.1041 6.31458C16.0406 6.2519 15.9551 6.21675 15.8659 6.21675C15.7767 6.21675 15.6912 6.2519 15.6277 6.31458C15.5643 6.37726 15.5282 6.46241 15.5271 6.55157C15.5276 6.92989 15.6579 7.29657 15.8963 7.59029C16.1348 7.88402 16.4668 8.08699 16.8369 8.16525V8.73792C16.8369 8.82778 16.8726 8.91395 16.9362 8.97749C16.9997 9.04103 17.0859 9.07673 17.1757 9.07673C17.2656 9.07673 17.3518 9.04103 17.4153 8.97749C17.4789 8.91395 17.5146 8.82778 17.5146 8.73792V8.1651C17.8849 8.0873 18.2172 7.88446 18.4557 7.59064C18.6943 7.29682 18.8244 6.9299 18.8244 6.55146C18.8244 6.17302 18.6943 5.80609 18.4557 5.51227C18.2172 5.21845 17.8849 5.01562 17.5146 4.93781H17.5147ZM23.9173 11.5279L22.8835 10.874L21.8507 10.2183C21.8005 10.1864 21.7428 10.1683 21.6833 10.1659C21.6239 10.1634 21.5649 10.1766 21.5122 10.2041C21.4595 10.2317 21.415 10.2726 21.3831 10.3228C21.3512 10.3731 21.3332 10.4308 21.3307 10.4902L21.2305 12.9361C21.2287 12.9806 21.2357 13.025 21.2511 13.0667C21.2664 13.1085 21.2898 13.1468 21.32 13.1795C21.3502 13.2122 21.3865 13.2386 21.4269 13.2573C21.4673 13.276 21.5109 13.2865 21.5554 13.2883H21.5694C21.6569 13.2882 21.7409 13.2544 21.8039 13.1938C21.867 13.1332 21.9042 13.0506 21.9077 12.9632L21.9605 11.669C22.2635 12.3019 22.4661 12.9782 22.5609 13.6734C23.0109 16.9609 20.9543 20.1442 17.7769 21.0779C17.7342 21.0905 17.6944 21.1113 17.6598 21.1393C17.6251 21.1672 17.5963 21.2017 17.575 21.2407C17.5537 21.2798 17.5403 21.3226 17.5356 21.3669C17.5308 21.4111 17.5348 21.4559 17.5474 21.4985C17.5599 21.5412 17.5808 21.581 17.6087 21.6156C17.6366 21.6503 17.6711 21.6791 17.7102 21.7004C17.7492 21.7217 17.7921 21.7351 17.8363 21.7398C17.8806 21.7446 17.9253 21.7406 17.968 21.728C18.9882 21.4265 19.9318 20.9097 20.7354 20.2126C21.539 19.5155 22.1838 18.6542 22.6264 17.6868C23.069 16.7195 23.299 15.6684 23.3011 14.6046C23.3031 13.5408 23.0771 12.4889 22.6382 11.5199L23.555 12.1005C23.6309 12.1475 23.7223 12.1625 23.8092 12.1425C23.8962 12.1224 23.9717 12.0689 24.0194 11.9935C24.0672 11.918 24.0832 11.8268 24.0641 11.7397C24.0449 11.6525 23.9922 11.5764 23.9173 11.5279ZM10.023 17.151C9.17837 17.1496 8.34045 17.3016 7.55006 17.5995C7.38931 18.2542 6.98962 18.8251 6.42947 19.2002C7.49373 19.5232 8.42595 20.1798 9.08856 21.0731C9.75117 21.9664 10.1091 23.049 10.1094 24.1612C10.1095 24.2766 10.09 24.3912 10.0518 24.5H16.6958C16.7856 24.4998 16.8716 24.4641 16.9351 24.4006C16.9986 24.3371 17.0344 24.251 17.0346 24.1612C17.034 22.302 16.295 20.5191 14.9802 19.2045C13.6654 17.8899 11.8823 17.1513 10.023 17.151ZM4.92773 14.9332C4.45971 14.9332 4.00617 15.0955 3.6444 15.3924C3.28262 15.6894 3.03499 16.1025 2.94369 16.5616C2.8524 17.0206 2.92309 17.4971 3.14372 17.9098C3.36435 18.3226 3.72128 18.6461 4.15368 18.8252C4.58607 19.0043 5.0672 19.0279 5.51507 18.8921C5.96293 18.7562 6.34984 18.4692 6.60986 18.0801C6.86988 17.691 6.98693 17.2237 6.94106 16.7579C6.8952 16.2922 6.68925 15.8567 6.35831 15.5257C6.1707 15.3375 5.9477 15.1882 5.70216 15.0865C5.45661 14.9848 5.19337 14.9327 4.92759 14.9332H4.92773ZM7.87664 11.2903C7.38093 11.7868 7.07268 12.4398 7.00442 13.1381C6.93615 13.8364 7.11208 14.5368 7.50224 15.1199C7.8924 15.7031 8.47266 16.1329 9.14418 16.3362C9.81569 16.5396 10.5369 16.5038 11.185 16.235C11.8331 15.9663 12.368 15.4811 12.6986 14.8622C13.0291 14.2434 13.1349 13.529 12.9979 12.8409C12.8609 12.1528 12.4895 11.5335 11.9471 11.0884C11.4047 10.6434 10.7248 10.4001 10.0232 10.4001C9.62434 10.3996 9.22933 10.4779 8.8609 10.6307C8.49248 10.7835 8.15792 11.0076 7.8765 11.2903H7.87664ZM4.92759 19.6569C4.33599 19.6568 3.75015 19.7733 3.20355 19.9996C2.65694 20.2259 2.16026 20.5577 1.74186 20.9759C1.32347 21.3942 0.991552 21.8908 0.765068 22.4373C0.538584 22.9838 0.421967 23.5696 0.421875 24.1612C0.422073 24.251 0.457834 24.3371 0.521333 24.4006C0.584831 24.4641 0.670894 24.4998 0.760688 24.5H9.09309C9.18288 24.4998 9.26893 24.4641 9.33242 24.4006C9.39591 24.3371 9.43166 24.251 9.43186 24.1612C9.43167 22.9667 8.95706 21.8211 8.11239 20.9764C7.26772 20.1318 6.12215 19.6571 4.92759 19.6569ZM4.36603 14.3132C4.40885 14.3545 4.46177 14.3837 4.51949 14.3981C4.57721 14.4124 4.63768 14.4113 4.69484 14.3948C4.75199 14.3784 4.8038 14.3472 4.84507 14.3044C4.88634 14.2616 4.91561 14.2086 4.92994 14.1509L5.51972 11.7768C5.54139 11.6896 5.52754 11.5973 5.48121 11.5204C5.43488 11.4434 5.35986 11.3879 5.27266 11.3663C5.18547 11.3446 5.09323 11.3584 5.01624 11.4048C4.93926 11.4511 4.88383 11.5261 4.86216 11.6133L4.58011 12.7484C4.50868 12.361 4.47117 11.9681 4.46803 11.5742C4.44 8.25651 6.88594 5.36189 10.1572 4.84101C10.2455 4.82635 10.3243 4.77738 10.3766 4.70479C10.4289 4.6322 10.4503 4.54188 10.4363 4.45353C10.4222 4.36519 10.3738 4.28599 10.3015 4.23321C10.2293 4.18044 10.1391 4.15837 10.0507 4.17182C9.06459 4.33014 8.12045 4.68539 7.27456 5.21639C6.42867 5.74739 5.69836 6.44327 5.12716 7.26255C4.55595 8.08182 4.15555 9.00772 3.94983 9.98505C3.7441 10.9624 3.73726 11.9711 3.92972 12.9511L3.075 12.1272C3.01032 12.0649 2.92351 12.0307 2.83368 12.0324C2.74384 12.034 2.65834 12.0713 2.59598 12.136C2.53363 12.2007 2.49952 12.2875 2.50116 12.3773C2.5028 12.4671 2.54007 12.5526 2.60475 12.615L4.36603 14.3132Z" fill="#00A52E"/>
</svg>
