<svg width="24" height="24" viewBox="0 0 24 24" fill="none" xmlns="http://www.w3.org/2000/svg">
<path fill-rule="evenodd" clip-rule="evenodd" d="M18 0H6C4.905 0 4.5 0.405 4.5 1.5V24L12 19.365L19.5 24V1.5C19.5 0.405 19.095 0 18 0ZM16.83 6.375L14.04 8.415L15.12 11.655C15.21 11.985 15.09 12.075 14.82 11.91L12 9.9L9.18 11.91C8.895 12.075 8.805 11.985 8.88 11.655L9.96 8.415L7.17 6.375C6.915 6.135 6.96 6.03 7.305 6.03L10.755 5.985L11.805 2.745H12.18L13.23 5.985L16.68 6.03C17.025 6.03 17.085 6.15 16.815 6.375H16.83Z" fill="#9E00FF"/>
</svg>
