<svg width="24" height="24" viewBox="0 0 24 24" fill="none" xmlns="http://www.w3.org/2000/svg">
<path fill-rule="evenodd" clip-rule="evenodd" d="M22.5 13.5L20.805 2.79C20.685 2.07 20.055 1.5 19.305 1.5H4.695C3.945 1.5 3.315 2.07 3.195 2.79L1.5 13.5V21C1.5 21.825 2.175 22.5 3 22.5H21C21.825 22.5 22.5 21.825 22.5 21V13.5ZM17.58 14.325L16.92 15.66C16.665 16.17 16.14 16.5 15.555 16.5H8.415C7.845 16.5 7.335 16.17 7.08 15.675L6.42 14.31C6.165 13.815 5.64 13.485 5.085 13.485H3L4.5 2.985H19.5L21 13.485H18.93C18.345 13.485 17.835 13.815 17.565 14.31L17.58 14.325Z" fill="#00A52E"/>
</svg>
