<svg width="17" height="18" viewBox="0 0 17 18" fill="none" xmlns="http://www.w3.org/2000/svg">
<path fill-rule="evenodd" clip-rule="evenodd" d="M10.5688 4.25056C10.7164 4.08819 10.8929 3.95868 11.0881 3.86959C11.2833 3.78049 11.4933 3.73359 11.7057 3.73163C11.9182 3.72967 12.1289 3.77268 12.3255 3.85816C12.5222 3.94364 12.7008 4.06987 12.851 4.22949C13.0013 4.3891 13.1201 4.57891 13.2005 4.78784C13.281 4.99676 13.3214 5.22062 13.3196 5.44634C13.3177 5.67207 13.2736 5.89514 13.1898 6.10255C13.1059 6.30995 12.984 6.49754 12.8312 6.65436L10.4312 9.20436C10.1311 9.52306 9.72425 9.7021 9.29999 9.7021C8.87573 9.7021 8.46884 9.52306 8.16879 9.20436C8.01791 9.04952 7.81583 8.96385 7.60607 8.96579C7.39631 8.96772 7.19566 9.05712 7.04734 9.21471C6.89901 9.37231 6.81487 9.5855 6.81305 9.80837C6.81123 10.0312 6.89186 10.2459 7.03759 10.4063C7.63768 11.0437 8.45147 11.4017 9.29999 11.4017C10.1485 11.4017 10.9623 11.0437 11.5624 10.4063L13.9624 7.85626C14.5453 7.21501 14.8678 6.35616 14.8605 5.46469C14.8533 4.57323 14.5167 3.72046 13.9234 3.09008C13.3301 2.45969 12.5275 2.10211 11.6885 2.09437C10.8494 2.08662 10.0411 2.42932 9.43759 3.04866L8.23759 4.32366C8.16118 4.40207 8.10024 4.49586 8.05831 4.59956C8.01638 4.70327 7.99431 4.81481 7.99339 4.92767C7.99247 5.04053 8.01271 5.15246 8.05293 5.25692C8.09316 5.36138 8.15256 5.45629 8.22768 5.53609C8.30279 5.6159 8.39211 5.67902 8.49043 5.72176C8.58874 5.7645 8.69409 5.786 8.80031 5.78502C8.90654 5.78404 9.01151 5.76059 9.10911 5.71605C9.20672 5.6715 9.29499 5.60674 9.36879 5.52556L10.5688 4.25056ZM6.56879 8.50056C6.86884 8.18186 7.27573 8.00282 7.69999 8.00282C8.12425 8.00282 8.53115 8.18186 8.83119 8.50056C8.90499 8.58174 8.99326 8.6465 9.09087 8.69105C9.18847 8.73559 9.29345 8.75904 9.39967 8.76002C9.50589 8.761 9.61124 8.7395 9.70955 8.69676C9.80787 8.65402 9.89719 8.5909 9.97231 8.5111C10.0474 8.43129 10.1068 8.33638 10.147 8.23192C10.1873 8.12746 10.2075 8.01553 10.2066 7.90267C10.2057 7.78981 10.1836 7.67827 10.1417 7.57456C10.0997 7.47086 10.0388 7.37707 9.96239 7.29866C9.3623 6.66126 8.54852 6.30318 7.69999 6.30318C6.85147 6.30318 6.03768 6.66126 5.43759 7.29866L3.03759 9.84866C2.73196 10.1623 2.48818 10.5375 2.32047 10.9523C2.15276 11.3671 2.06448 11.8132 2.06079 12.2647C2.0571 12.7161 2.13806 13.1639 2.29896 13.5817C2.45986 13.9995 2.69747 14.3792 2.99793 14.6984C3.29838 15.0176 3.65567 15.2701 4.04894 15.4411C4.44221 15.612 4.86358 15.698 5.28848 15.6941C5.71337 15.6902 6.13327 15.5964 6.52369 15.4182C6.9141 15.24 7.2672 14.981 7.56239 14.6563L8.76239 13.3813C8.8388 13.3028 8.89974 13.2091 8.94167 13.1054C8.9836 13.0016 9.00567 12.8901 9.00659 12.7773C9.00751 12.6644 8.98727 12.5525 8.94705 12.448C8.90682 12.3435 8.84742 12.2486 8.77231 12.1688C8.69719 12.089 8.60787 12.0259 8.50955 11.9832C8.41124 11.9404 8.30589 11.9189 8.19967 11.9199C8.09345 11.9209 7.98847 11.9443 7.89087 11.9889C7.79326 12.0334 7.70499 12.0982 7.63119 12.1794L6.43119 13.4544C6.2836 13.6167 6.10705 13.7462 5.91184 13.8353C5.71663 13.9244 5.50668 13.9713 5.29423 13.9733C5.08179 13.9752 4.8711 13.9322 4.67446 13.8468C4.47783 13.7613 4.29919 13.635 4.14896 13.4754C3.99873 13.3158 3.87993 13.126 3.79948 12.9171C3.71903 12.7082 3.67854 12.4843 3.68039 12.2586C3.68224 12.0329 3.72637 11.8098 3.81023 11.6024C3.89408 11.395 4.01597 11.2074 4.16879 11.0506L6.56879 8.50056Z" fill="black"/>
</svg>
