<svg width="24" height="24" viewBox="0 0 24 24" fill="none" xmlns="http://www.w3.org/2000/svg">
<path fill-rule="evenodd" clip-rule="evenodd" d="M2.40039 5.99961C2.40039 5.36309 2.65325 4.75264 3.10333 4.30255C3.55342 3.85247 4.16387 3.59961 4.80039 3.59961H14.4004C15.0369 3.59961 15.6474 3.85247 16.0974 4.30255C16.5475 4.75264 16.8004 5.36309 16.8004 5.99961V17.9996C16.8004 18.6361 17.0532 19.2466 17.5033 19.6967C17.9534 20.1468 18.5639 20.3996 19.2004 20.3996H4.80039C4.16387 20.3996 3.55342 20.1468 3.10333 19.6967C2.65325 19.2466 2.40039 18.6361 2.40039 17.9996V5.99961ZM6.00039 7.19961H13.2004V11.9996H6.00039V7.19961ZM13.2004 14.3996H6.00039V16.7996H13.2004V14.3996Z" fill="#0094FF"/>
<path d="M18 8.40039H19.2C19.8365 8.40039 20.447 8.65325 20.8971 9.10333C21.3471 9.55342 21.6 10.1639 21.6 10.8004V17.4004C21.6 17.8778 21.4104 18.3356 21.0728 18.6732C20.7352 19.0107 20.2774 19.2004 19.8 19.2004C19.3226 19.2004 18.8648 19.0107 18.5272 18.6732C18.1896 18.3356 18 17.8778 18 17.4004V8.40039Z" fill="#0094FF"/>
</svg>
