<svg width="24" height="24" viewBox="0 0 24 24" fill="none" xmlns="http://www.w3.org/2000/svg">
<path fill-rule="evenodd" clip-rule="evenodd" d="M21.6004 3.59975C21.6003 3.39528 21.5479 3.19423 21.4483 3.01568C21.3487 2.83712 21.2051 2.68699 21.0311 2.57952C20.8572 2.47205 20.6586 2.41081 20.4544 2.40161C20.2501 2.39241 20.0469 2.43555 19.864 2.52695L10.516 7.19975H6.00039C5.04561 7.19975 4.12994 7.57904 3.45481 8.25417C2.77968 8.9293 2.40039 9.84497 2.40039 10.7998C2.40039 11.7545 2.77968 12.6702 3.45481 13.3453C4.12994 14.0205 5.04561 14.3997 6.00039 14.3997H6.33639L8.46159 20.7789C8.54121 21.018 8.69405 21.2259 8.89845 21.3732C9.10285 21.5206 9.34843 21.5998 9.60039 21.5998H10.8004C11.1187 21.5998 11.4239 21.4733 11.6489 21.2483C11.874 21.0232 12.0004 20.718 12.0004 20.3997V15.1414L19.864 19.0725C20.0469 19.1639 20.2501 19.2071 20.4544 19.1979C20.6586 19.1887 20.8572 19.1275 21.0311 19.02C21.2051 18.9125 21.3487 18.7624 21.4483 18.5838C21.5479 18.4053 21.6003 18.2042 21.6004 17.9998V3.59975Z" fill="#8F00FF"/>
</svg>
