<svg width="24" height="24" viewBox="0 0 24 24" fill="none" xmlns="http://www.w3.org/2000/svg">
<path fill-rule="evenodd" clip-rule="evenodd" d="M21.6004 12.0004C21.6004 14.5465 20.589 16.9883 18.7886 18.7886C16.9883 20.589 14.5465 21.6004 12.0004 21.6004C9.45431 21.6004 7.01252 20.589 5.21217 18.7886C3.41182 16.9883 2.40039 14.5465 2.40039 12.0004C2.40039 9.45431 3.41182 7.01252 5.21217 5.21217C7.01252 3.41182 9.45431 2.40039 12.0004 2.40039C14.5465 2.40039 16.9883 3.41182 18.7886 5.21217C20.589 7.01252 21.6004 9.45431 21.6004 12.0004ZM14.4004 8.40039C14.4004 9.03691 14.1475 9.64736 13.6974 10.0974C13.2474 10.5475 12.6369 10.8004 12.0004 10.8004C11.3639 10.8004 10.7534 10.5475 10.3033 10.0974C9.85325 9.64736 9.60039 9.03691 9.60039 8.40039C9.60039 7.76387 9.85325 7.15342 10.3033 6.70333C10.7534 6.25325 11.3639 6.00039 12.0004 6.00039C12.6369 6.00039 13.2474 6.25325 13.6974 6.70333C14.1475 7.15342 14.4004 7.76387 14.4004 8.40039ZM12.0004 13.2004C10.8515 13.2002 9.72672 13.5298 8.75969 14.1501C7.79266 14.7704 7.02404 15.6553 6.54519 16.6996C7.2204 17.4851 8.05752 18.1153 8.99912 18.547C9.94073 18.9786 10.9646 19.2015 12.0004 19.2004C13.0362 19.2015 14.0601 18.9786 15.0017 18.547C15.9433 18.1153 16.7804 17.4851 17.4556 16.6996C16.9767 15.6553 16.2081 14.7704 15.2411 14.1501C14.2741 13.5298 13.1493 13.2002 12.0004 13.2004Z" fill="#FF6B00"/>
</svg>
