<svg width="24" height="24" viewBox="0 0 24 24" fill="none" xmlns="http://www.w3.org/2000/svg">
<path d="M15.6002 7.19961C15.6002 8.15439 15.2209 9.07006 14.5458 9.74519C13.8706 10.4203 12.955 10.7996 12.0002 10.7996C11.0454 10.7996 10.1297 10.4203 9.45461 9.74519C8.77948 9.07006 8.4002 8.15439 8.4002 7.19961C8.4002 6.24483 8.77948 5.32916 9.45461 4.65403C10.1297 3.97889 11.0454 3.59961 12.0002 3.59961C12.955 3.59961 13.8706 3.97889 14.5458 4.65403C15.2209 5.32916 15.6002 6.24483 15.6002 7.19961ZM21.6002 9.59961C21.6002 10.2361 21.3473 10.8466 20.8973 11.2967C20.4472 11.7468 19.8367 11.9996 19.2002 11.9996C18.5637 11.9996 17.9532 11.7468 17.5031 11.2967C17.0531 10.8466 16.8002 10.2361 16.8002 9.59961C16.8002 8.96309 17.0531 8.35264 17.5031 7.90255C17.9532 7.45247 18.5637 7.19961 19.2002 7.19961C19.8367 7.19961 20.4472 7.45247 20.8973 7.90255C21.3473 8.35264 21.6002 8.96309 21.6002 9.59961ZM16.8002 17.9996C16.8002 16.7266 16.2945 15.5057 15.3943 14.6055C14.4941 13.7053 13.2732 13.1996 12.0002 13.1996C10.7272 13.1996 9.50626 13.7053 8.60608 14.6055C7.70591 15.5057 7.2002 16.7266 7.2002 17.9996V21.5996H16.8002V17.9996ZM7.2002 9.59961C7.2002 10.2361 6.94734 10.8466 6.49725 11.2967C6.04717 11.7468 5.43672 11.9996 4.8002 11.9996C4.16368 11.9996 3.55323 11.7468 3.10314 11.2967C2.65305 10.8466 2.4002 10.2361 2.4002 9.59961C2.4002 8.96309 2.65305 8.35264 3.10314 7.90255C3.55323 7.45247 4.16368 7.19961 4.8002 7.19961C5.43672 7.19961 6.04717 7.45247 6.49725 7.90255C6.94734 8.35264 7.2002 8.96309 7.2002 9.59961ZM19.2002 21.5996V17.9996C19.2019 16.7795 18.8921 15.5792 18.3002 14.5124C18.8322 14.3763 19.3883 14.3634 19.926 14.4749C20.4638 14.5863 20.9689 14.8191 21.403 15.1555C21.8371 15.4919 22.1886 15.923 22.4307 16.4159C22.6729 16.9088 22.7992 17.4504 22.8002 17.9996V21.5996H19.2002ZM5.7002 14.5124C5.10829 15.5793 4.79851 16.7796 4.8002 17.9996V21.5996H1.2002V17.9996C1.19996 17.4501 1.32555 16.9077 1.56733 16.4142C1.80911 15.9207 2.16067 15.4891 2.59506 15.1525C3.02944 14.8159 3.53513 14.5832 4.07337 14.4722C4.6116 14.3613 5.16809 14.375 5.7002 14.5124Z" fill="#8F00FF"/>
</svg>
