<svg width="24" height="24" viewBox="0 0 24 24" fill="none" xmlns="http://www.w3.org/2000/svg">
<path d="M12.1359 2.25091C6.65243 2.17684 2.17587 6.65341 2.24993 12.1368C2.32305 17.3958 6.60509 21.6778 11.864 21.7509C17.3484 21.8259 21.824 17.3493 21.749 11.8659C21.6768 6.60606 17.3948 2.32403 12.1359 2.25091ZM11.3488 11.2729L13.7652 8.50731C13.8962 8.35751 14.0812 8.26584 14.2797 8.25248C14.4782 8.23912 14.6739 8.30515 14.8237 8.43606C14.9735 8.56697 15.0652 8.75203 15.0785 8.95053C15.0919 9.14902 15.0258 9.34469 14.8949 9.4945L12.4785 12.2601C12.4137 12.3343 12.3349 12.395 12.2466 12.4387C12.1584 12.4824 12.0623 12.5083 11.9641 12.515C11.8658 12.5216 11.7671 12.5088 11.6738 12.4773C11.5805 12.4458 11.4943 12.3962 11.4201 12.3314C11.3459 12.2666 11.2852 12.1878 11.2415 12.0995C11.1978 12.0112 11.1719 11.9152 11.1653 11.8169C11.1586 11.7186 11.1714 11.62 11.2029 11.5267C11.2344 11.4333 11.284 11.3471 11.3488 11.2729ZM9.52727 15.5315C9.38664 15.6721 9.19594 15.751 8.99712 15.751C8.79829 15.751 8.6076 15.6721 8.46696 15.5315L6.2193 13.2815C6.14968 13.2118 6.09447 13.1291 6.05681 13.0381C6.01916 12.9471 5.9998 12.8495 5.99984 12.751C5.99989 12.6525 6.01933 12.555 6.05707 12.464C6.0948 12.373 6.15009 12.2904 6.21977 12.2207C6.28946 12.1511 6.37217 12.0959 6.46319 12.0583C6.55421 12.0206 6.65176 12.0012 6.75026 12.0013C6.84876 12.0013 6.94629 12.0208 7.03728 12.0585C7.12827 12.0962 7.21093 12.1515 7.28055 12.2212L9.53055 14.4712C9.67067 14.6123 9.74903 14.8032 9.74841 15.0021C9.7478 15.2009 9.66826 15.3913 9.52727 15.5315ZM17.8148 9.4945L12.5704 15.4945C12.5028 15.5719 12.4201 15.6346 12.3273 15.6787C12.2345 15.7228 12.1336 15.7474 12.0309 15.7509H12.0056C11.907 15.7509 11.8094 15.7315 11.7184 15.6938C11.6273 15.6561 11.5446 15.6008 11.4749 15.5311L9.22774 13.2811C9.08714 13.1403 9.00819 12.9495 9.00828 12.7506C9.00837 12.5516 9.08748 12.3609 9.22821 12.2203C9.36894 12.0797 9.55976 12.0007 9.7587 12.0008C9.95763 12.0009 10.1484 12.08 10.289 12.2207L11.6859 13.619C11.7222 13.6554 11.7656 13.6838 11.8133 13.7027C11.8611 13.7216 11.9123 13.7304 11.9636 13.7287C12.0149 13.727 12.0654 13.7147 12.1118 13.6927C12.1582 13.6707 12.1996 13.6394 12.2334 13.6007L16.6865 8.50731C16.8174 8.35751 17.0025 8.26584 17.201 8.25248C17.3994 8.23912 17.5951 8.30515 17.7449 8.43606C17.8947 8.56697 17.9864 8.75203 17.9998 8.95053C18.0131 9.14902 17.9471 9.34469 17.8162 9.4945H17.8148Z" fill="#0094FF"/>
</svg>
