<svg width="25" height="25" viewBox="0 0 25 25" fill="none" xmlns="http://www.w3.org/2000/svg">
<g clip-path="url(#clip0_531_15)">
<path d="M10.1071 8.00021L5.82143 9.78607V15.2144L10.1071 17.0002V8.00021ZM2.82143 15.0716H4.96429V9.92878H2.82143C2.13944 9.92878 1.48539 10.1997 1.00315 10.6819C0.520918 11.1642 0.25 11.8182 0.25 12.5002C0.25 13.1822 0.520918 13.8362 1.00315 14.3185C1.48539 14.8007 2.13944 15.0716 2.82143 15.0716ZM4.10714 19.3574C4.33447 19.3574 4.55249 19.267 4.71323 19.1063C4.87398 18.9456 4.96429 18.7275 4.96429 18.5002V15.9288H3.25V18.5002C3.25 18.7275 3.34031 18.9456 3.50105 19.1063C3.6618 19.267 3.87981 19.3574 4.10714 19.3574ZM11.8214 19.3574C12.0488 19.3574 12.2668 19.267 12.4275 19.1063C12.5883 18.9456 12.6786 18.7275 12.6786 18.5002V6.50021C12.6786 6.27288 12.5883 6.05486 12.4275 5.89412C12.2668 5.73337 12.0488 5.64307 11.8214 5.64307C11.5941 5.64307 11.3761 5.73337 11.2153 5.89412C11.0546 6.05486 10.9643 6.27288 10.9643 6.50021V18.5002C10.9643 18.7275 11.0546 18.9456 11.2153 19.1063C11.3761 19.267 11.5941 19.3574 11.8214 19.3574Z" fill="#00A3FF"/>
<path d="M21.2489 3.0715C21.4856 3.0715 21.6775 2.87962 21.6775 2.64293C21.6775 2.40623 21.4856 2.21436 21.2489 2.21436C21.0122 2.21436 20.8203 2.40623 20.8203 2.64293C20.8203 2.87962 21.0122 3.0715 21.2489 3.0715Z" fill="#00A3FF"/>
<path d="M20.1406 6.28597C20.8521 6.57311 21.6466 6.57311 22.3581 6.28597C22.2461 6.09089 22.0846 5.92881 21.8899 5.8161C21.6952 5.70339 21.4743 5.64404 21.2493 5.64404C21.0244 5.64404 20.8034 5.70339 20.6088 5.8161C20.4141 5.92881 20.2526 6.09089 20.1406 6.28597Z" fill="#00A3FF"/>
<path d="M21.2489 12.0715C21.4856 12.0715 21.6775 11.8796 21.6775 11.6429C21.6775 11.4062 21.4856 11.2144 21.2489 11.2144C21.0122 11.2144 20.8203 11.4062 20.8203 11.6429C20.8203 11.8796 21.0122 12.0715 21.2489 12.0715Z" fill="#00A3FF"/>
<path d="M20.1406 15.286C20.8521 15.5731 21.6466 15.5731 22.3581 15.286C22.2461 15.0909 22.0846 14.9288 21.8899 14.8161C21.6952 14.7034 21.4743 14.644 21.2493 14.644C21.0244 14.644 20.8034 14.7034 20.6088 14.8161C20.4141 14.9288 20.2526 15.0909 20.1406 15.286Z" fill="#00A3FF"/>
<path d="M23.0979 5.85722C23.484 5.5551 23.7902 5.16287 23.9895 4.7149C24.1888 4.26694 24.2752 3.77693 24.241 3.28782C24.2069 2.79871 24.0533 2.32543 23.7937 1.90949C23.5342 1.49355 23.1765 1.14763 22.7521 0.902067C22.3278 0.656503 21.8496 0.518789 21.3596 0.500998C20.8697 0.483206 20.3828 0.585881 19.9417 0.80002C19.5007 1.01416 19.1189 1.33323 18.8298 1.72925C18.5407 2.12527 18.3532 2.58616 18.2837 3.0715H16.1066C15.7656 3.0715 15.4386 3.20696 15.1974 3.44808C14.9563 3.6892 14.8209 4.01622 14.8209 4.35722V12.0715H13.5352V12.9286H14.8209V20.6429C14.8209 20.9839 14.9563 21.3109 15.1974 21.5521C15.4386 21.7932 15.7656 21.9286 16.1066 21.9286H18.2837C18.3946 22.6911 18.7945 23.3816 19.4006 23.8572C19.587 23.5315 19.8562 23.2609 20.1809 23.0727C20.5055 22.8844 20.8742 22.7853 21.2494 22.7853C21.6247 22.7853 21.9933 22.8844 22.318 23.0727C22.6427 23.2609 22.9118 23.5315 23.0983 23.8572C23.4844 23.555 23.7904 23.1628 23.9896 22.7148C24.1888 22.2669 24.2751 21.7769 24.241 21.2878C24.2068 20.7988 24.0532 20.3256 23.7936 19.9097C23.534 19.4938 23.1763 19.1479 22.752 18.9024C22.3276 18.6569 21.8495 18.5192 21.3596 18.5014C20.8697 18.4836 20.3828 18.5862 19.9418 18.8003C19.5008 19.0144 19.119 19.3335 18.8299 19.7294C18.5408 20.1254 18.3533 20.5862 18.2837 21.0715H16.1066C15.9929 21.0715 15.8839 21.0264 15.8035 20.946C15.7232 20.8656 15.678 20.7566 15.678 20.6429V12.9286H18.2837C18.3946 13.6911 18.7945 14.3816 19.4006 14.8572C19.587 14.5315 19.8562 14.2609 20.1809 14.0727C20.5055 13.8844 20.8742 13.7853 21.2494 13.7853C21.6247 13.7853 21.9933 13.8844 22.318 14.0727C22.6427 14.2609 22.9118 14.5315 23.0983 14.8572C23.4844 14.555 23.7904 14.1628 23.9896 13.7148C24.1888 13.2669 24.2751 12.7769 24.241 12.2878C24.2068 11.7988 24.0532 11.3256 23.7936 10.9097C23.534 10.4938 23.1763 10.1479 22.752 9.90239C22.3276 9.65686 21.8495 9.51917 21.3596 9.50138C20.8697 9.48359 20.3828 9.58624 19.9418 9.80034C19.5008 10.0144 19.119 10.3335 18.8299 10.7294C18.5408 11.1254 18.3533 11.5862 18.2837 12.0715H15.678V4.35722C15.678 4.24355 15.7232 4.13454 15.8035 4.05417C15.8839 3.9738 15.9929 3.92864 16.1066 3.92864H18.2837C18.3947 4.69113 18.7947 5.38169 19.401 5.85722C19.5873 5.53141 19.8563 5.26062 20.1809 5.07228C20.5055 4.88394 20.8742 4.78475 21.2494 4.78475C21.6247 4.78475 21.9933 4.88394 22.318 5.07228C22.6426 5.26062 22.9116 5.53141 23.0979 5.85722ZM21.2494 19.3572C21.5904 19.3572 21.9175 19.4927 22.1586 19.7338C22.3997 19.9749 22.5352 20.3019 22.5352 20.6429C22.5352 20.9839 22.3997 21.3109 22.1586 21.5521C21.9175 21.7932 21.5904 21.9286 21.2494 21.9286C20.9085 21.9286 20.5814 21.7932 20.3403 21.5521C20.0992 21.3109 19.9637 20.9839 19.9637 20.6429C19.9637 20.3019 20.0992 19.9749 20.3403 19.7338C20.5814 19.4927 20.9085 19.3572 21.2494 19.3572ZM21.2494 10.3572C21.5904 10.3572 21.9175 10.4927 22.1586 10.7338C22.3997 10.9749 22.5352 11.3019 22.5352 11.6429C22.5352 11.9839 22.3997 12.311 22.1586 12.5521C21.9175 12.7932 21.5904 12.9286 21.2494 12.9286C20.9085 12.9286 20.5814 12.7932 20.3403 12.5521C20.0992 12.311 19.9637 11.9839 19.9637 11.6429C19.9637 11.3019 20.0992 10.9749 20.3403 10.7338C20.5814 10.4927 20.9085 10.3572 21.2494 10.3572ZM21.2494 3.92864C20.9085 3.92864 20.5814 3.79319 20.3403 3.55207C20.0992 3.31095 19.9637 2.98392 19.9637 2.64293C19.9637 2.30194 20.0992 1.97491 20.3403 1.73379C20.5814 1.49267 20.9085 1.35722 21.2494 1.35722C21.5904 1.35722 21.9175 1.49267 22.1586 1.73379C22.3997 1.97491 22.5352 2.30194 22.5352 2.64293C22.5352 2.98392 22.3997 3.31095 22.1586 3.55207C21.9175 3.79319 21.5904 3.92864 21.2494 3.92864Z" fill="#00A3FF"/>
<path d="M21.2489 21.0715C21.4856 21.0715 21.6775 20.8796 21.6775 20.6429C21.6775 20.4062 21.4856 20.2144 21.2489 20.2144C21.0122 20.2144 20.8203 20.4062 20.8203 20.6429C20.8203 20.8796 21.0122 21.0715 21.2489 21.0715Z" fill="#00A3FF"/>
<path d="M21.2493 23.6431C21.0243 23.6433 20.8034 23.7028 20.6087 23.8157C20.4141 23.9286 20.2526 24.0908 20.1406 24.2859C20.8521 24.5731 21.6466 24.5731 22.3581 24.2859C22.2461 24.0908 22.0846 23.9286 21.89 23.8157C21.6953 23.7028 21.4743 23.6433 21.2493 23.6431Z" fill="#00A3FF"/>
</g>
<defs>
<clipPath id="clip0_531_15">
<rect width="24" height="24" fill="white" transform="translate(0.25 0.5)"/>
</clipPath>
</defs>
</svg>
