<svg width="11" height="11" viewBox="0 0 11 11" fill="none" xmlns="http://www.w3.org/2000/svg">
<path fill-rule="evenodd" clip-rule="evenodd" d="M11 11H8.8V7.15054C8.8 6.09454 8.33415 5.50537 7.4987 5.50537C6.58955 5.50537 6.05 6.11929 6.05 7.15054V11H3.85V3.85H6.05V4.65405C6.05 4.65405 6.74025 3.44287 8.29565 3.44287C9.8516 3.44287 11 4.39236 11 6.35696V11ZM1.3431 2.70649C0.601151 2.70649 0 2.10043 0 1.35298C0 0.606079 0.601151 0 1.3431 0C2.0845 0 2.68565 0.606079 2.68565 1.35298C2.6862 2.10043 2.0845 2.70649 1.3431 2.70649ZM0 11H2.75V3.85H0V11Z" fill="white"/>
</svg>
