<svg width="35" height="34" viewBox="0 0 35 34" fill="none" xmlns="http://www.w3.org/2000/svg">
<path d="M29.474 0.804688H4.74672C2.18612 0.804688 0.110352 2.81941 0.110352 5.30469V29.3047C0.110352 31.79 2.18612 33.8047 4.74672 33.8047H29.474C32.0346 33.8047 34.1104 31.79 34.1104 29.3047V5.30469C34.1104 2.81941 32.0346 0.804688 29.474 0.804688Z" fill="white"/>
<path d="M12.3589 9.80469C12.3589 10.3609 12.189 10.9047 11.8706 11.3672C11.5522 11.8297 11.0996 12.1902 10.5701 12.4031C10.0406 12.616 9.45799 12.6717 8.89589 12.5631C8.33378 12.4546 7.81746 12.1868 7.4122 11.7934C7.00695 11.4001 6.73097 10.899 6.61916 10.3534C6.50735 9.80781 6.56473 9.24231 6.78405 8.72839C7.00338 8.21447 7.37479 7.77522 7.85131 7.46618C8.32784 7.15714 8.88809 6.99219 9.46121 6.99219C10.2297 6.99219 10.9668 7.2885 11.5102 7.81595C12.0536 8.3434 12.3589 9.05877 12.3589 9.80469ZM11.7021 14.4922V26.9178C11.7026 27.0095 11.6845 27.1003 11.6487 27.1852C11.6129 27.27 11.5602 27.3471 11.4936 27.4121C11.427 27.4771 11.3478 27.5287 11.2606 27.5639C11.1734 27.5991 11.0799 27.6172 10.9854 27.6172H7.93121C7.83676 27.6174 7.7432 27.5996 7.65589 27.5646C7.56859 27.5296 7.48927 27.4783 7.42248 27.4134C7.3557 27.3486 7.30278 27.2716 7.26675 27.1869C7.23073 27.1022 7.21231 27.0114 7.21257 26.9197V14.4922C7.21257 14.3072 7.28828 14.1298 7.42305 13.999C7.55782 13.8682 7.74061 13.7947 7.93121 13.7947H10.9854C11.1757 13.7952 11.358 13.8689 11.4923 13.9996C11.6267 14.1304 11.7021 14.3075 11.7021 14.4922ZM27.6667 20.9609V26.9759C27.6669 27.0602 27.65 27.1437 27.6169 27.2216C27.5838 27.2995 27.5351 27.3703 27.4737 27.4299C27.4123 27.4895 27.3394 27.5367 27.2591 27.5689C27.1788 27.601 27.0928 27.6174 27.006 27.6172H23.7219C23.6351 27.6174 23.549 27.601 23.4688 27.5689C23.3885 27.5367 23.3155 27.4895 23.2541 27.4299C23.1927 27.3703 23.1441 27.2995 23.111 27.2216C23.0779 27.1437 23.061 27.0602 23.0612 26.9759V21.1466C23.0612 20.2766 23.3239 17.3366 20.7179 17.3366C18.6992 17.3366 18.2877 19.3484 18.2065 20.2522V26.9759C18.2066 27.1444 18.1383 27.3061 18.0165 27.4261C17.8946 27.5461 17.7291 27.6147 17.5555 27.6172H14.3835C14.2968 27.6172 14.211 27.6006 14.1309 27.5683C14.0509 27.5361 13.9782 27.4888 13.917 27.4293C13.8558 27.3697 13.8073 27.299 13.7743 27.2212C13.7413 27.1434 13.7245 27.0601 13.7247 26.9759V14.4378C13.7245 14.3537 13.7413 14.2703 13.7743 14.1926C13.8073 14.1148 13.8558 14.0441 13.917 13.9845C13.9782 13.9249 14.0509 13.8777 14.1309 13.8454C14.211 13.8132 14.2968 13.7966 14.3835 13.7966H17.5555C17.7307 13.7966 17.8988 13.8641 18.0227 13.9844C18.1466 14.1046 18.2162 14.2677 18.2162 14.4378V15.5216C18.9658 14.4303 20.0765 13.5884 22.4469 13.5884C27.6976 13.5884 27.6667 18.3472 27.6667 20.9609Z" fill="#0A66C2"/>
</svg>
