<svg width="35" height="34" viewBox="0 0 35 34" fill="none" xmlns="http://www.w3.org/2000/svg">
<path d="M29.8636 0.5H5.13636C2.57577 0.5 0.5 2.51472 0.5 5V29C0.5 31.4853 2.57577 33.5 5.13636 33.5H29.8636C32.4242 33.5 34.5 31.4853 34.5 29V5C34.5 2.51472 32.4242 0.5 29.8636 0.5Z" fill="#0077B5"/>
<path d="M12.7486 9.5C12.7486 10.0563 12.5786 10.6 12.2602 11.0625C11.9418 11.5251 11.4893 11.8855 10.9598 12.0984C10.4303 12.3113 9.84764 12.367 9.28554 12.2585C8.72343 12.1499 8.20711 11.8821 7.80185 11.4887C7.3966 11.0954 7.12061 10.5943 7.00881 10.0487C6.897 9.50312 6.95438 8.93762 7.1737 8.4237C7.39302 7.90979 7.76443 7.47053 8.24096 7.16149C8.71749 6.85245 9.27774 6.6875 9.85085 6.6875C10.6194 6.6875 11.3564 6.98382 11.8999 7.51126C12.4433 8.03871 12.7486 8.75408 12.7486 9.5ZM12.0918 14.1875V26.6131C12.0923 26.7048 12.0741 26.7957 12.0383 26.8805C12.0025 26.9653 11.9498 27.0424 11.8832 27.1074C11.8166 27.1724 11.7374 27.224 11.6502 27.2592C11.563 27.2944 11.4695 27.3125 11.3751 27.3125H8.32085C8.22641 27.3127 8.13285 27.2949 8.04554 27.2599C7.95824 27.2249 7.87891 27.1736 7.81213 27.1088C7.74535 27.0439 7.69243 26.967 7.6564 26.8822C7.62038 26.7975 7.60196 26.7067 7.60222 26.615V14.1875C7.60222 14.0025 7.67793 13.8251 7.8127 13.6943C7.94747 13.5635 8.13026 13.49 8.32085 13.49H11.3751C11.5653 13.4905 11.7476 13.5642 11.882 13.695C12.0163 13.8257 12.0918 14.0028 12.0918 14.1875ZM28.0563 20.6563V26.6713C28.0566 26.7555 28.0396 26.839 28.0065 26.9169C27.9734 26.9949 27.9248 27.0656 27.8634 27.1252C27.802 27.1848 27.729 27.2321 27.6488 27.2642C27.5685 27.2963 27.4825 27.3127 27.3956 27.3125H24.1115C24.0247 27.3127 23.9387 27.2963 23.8584 27.2642C23.7781 27.2321 23.7052 27.1848 23.6438 27.1252C23.5824 27.0656 23.5337 26.9949 23.5006 26.9169C23.4675 26.839 23.4506 26.7555 23.4509 26.6713V20.8419C23.4509 19.9719 23.7136 17.0319 21.1076 17.0319C19.0888 17.0319 18.6773 19.0438 18.5962 19.9475V26.6713C18.5962 26.8397 18.5279 27.0014 18.4061 27.1214C18.2843 27.2414 18.1187 27.31 17.9452 27.3125H14.7731C14.6865 27.3125 14.6006 27.2959 14.5206 27.2637C14.4405 27.2314 14.3678 27.1841 14.3066 27.1246C14.2454 27.065 14.197 26.9943 14.164 26.9165C14.131 26.8387 14.1141 26.7554 14.1144 26.6713V14.1331C14.1141 14.049 14.131 13.9657 14.164 13.8879C14.197 13.8101 14.2454 13.7394 14.3066 13.6798C14.3678 13.6202 14.4405 13.573 14.5206 13.5407C14.6006 13.5085 14.6865 13.4919 14.7731 13.4919H17.9452C18.1204 13.4919 18.2884 13.5594 18.4123 13.6797C18.5362 13.8 18.6059 13.9631 18.6059 14.1331V15.2169C19.3554 14.1256 20.4662 13.2838 22.8365 13.2838C28.0872 13.2838 28.0563 18.0425 28.0563 20.6563Z" fill="white"/>
</svg>
