<svg width="35" height="34" viewBox="0 0 35 34" fill="none" xmlns="http://www.w3.org/2000/svg">
<path d="M25.973 0H9C4.33175 0 0.5 3.83175 0.5 8.52698V25.5C0.5 30.1683 4.33175 34 9 34H25.973C30.6683 34 34.5 30.1683 34.5 25.473V8.52698C34.5 3.83175 30.6683 0 25.973 0ZM16.5825 6.98889C16.6365 6.15238 17.419 6.44921 17.8238 6.39524C22.8968 6.55714 27.2683 11.1175 27.2143 16.0286C27.2143 16.5143 27.3762 17.2159 26.6476 17.2159C25.946 17.2159 26.1349 16.4873 26.054 16.0016C25.3794 10.7937 22.9508 8.3381 17.6619 7.52857C17.2302 7.4746 16.5556 7.55556 16.5825 6.98889ZM24.1651 16.2444C23.3556 16.3524 23.5175 15.6508 23.4365 15.1921C22.8968 12.0079 21.7635 10.8476 18.4984 10.146C18.0127 10.0381 17.2571 10.119 17.3921 9.39048C17.5 8.68889 18.1746 8.93175 18.6873 8.98571C21.9524 9.36349 24.6238 12.1429 24.5968 15.1921C24.5429 15.5159 24.7587 16.1365 24.1651 16.2444ZM22.1413 14.5714C22.1413 15.0032 22.0873 15.4079 21.6016 15.4619C21.2508 15.5159 21.0349 15.219 20.981 14.8683C20.846 13.573 20.1444 12.7905 18.7952 12.5746C18.3905 12.5206 18.0127 12.3857 18.2016 11.846C18.3365 11.4952 18.6603 11.4413 19.0111 11.4413C20.4683 11.4143 22.1413 13.1143 22.1413 14.5714ZM27.2683 24.5286C26.7016 26.0667 24.7857 27.6317 23.1397 27.6048C22.8968 27.5508 22.4381 27.4698 22.0333 27.3079C14.8016 24.2587 9.53968 19.2397 6.57143 12.0619C5.57302 9.66032 6.6254 7.60952 9.13492 6.8C9.59365 6.6381 10.0254 6.6381 10.4841 6.8C11.5635 7.17778 14.2889 10.8746 14.3429 11.954C14.3968 12.7905 13.8032 13.2492 13.2365 13.627C12.1302 14.3556 12.1302 15.273 12.6159 16.3254C13.6683 18.646 15.4762 20.2651 17.8238 21.2905C18.6603 21.6683 19.4968 21.6413 20.0635 20.7778C21.0889 19.2397 22.3571 19.3206 23.7333 20.2651C24.4349 20.7508 25.1365 21.2095 25.7841 21.7222C26.6746 22.4508 27.8079 23.0444 27.2683 24.5286Z" fill="white"/>
</svg>
