<svg width="18" height="18" viewBox="0 0 18 18" fill="none" xmlns="http://www.w3.org/2000/svg">
<path d="M17 12.5C15.75 12.5 14.55 12.3 13.43 11.93C13.2542 11.874 13.0664 11.8667 12.8868 11.909C12.7072 11.9513 12.5424 12.0415 12.41 12.17L10.21 14.37C7.37119 12.9262 5.06378 10.6188 3.62 7.78L5.82 5.57C5.95245 5.44434 6.04632 5.28352 6.0906 5.1064C6.13488 4.92928 6.12773 4.7432 6.07 4.57C5.69065 3.41806 5.49821 2.2128 5.5 1C5.5 0.45 5.05 0 4.5 0H1C0.45 0 0 0.45 0 1C0 10.39 7.61 18 17 18C17.55 18 18 17.55 18 17V13.5C18 12.95 17.55 12.5 17 12.5ZM16 9H18C18 6.61305 17.0518 4.32387 15.364 2.63604C13.6761 0.948211 11.3869 0 9 0V2C12.87 2 16 5.13 16 9ZM12 9H14C14 6.24 11.76 4 9 4V6C10.66 6 12 7.34 12 9Z" fill="#00B628"/>
</svg>
