<svg width="24" height="24" viewBox="0 0 24 24" fill="none" xmlns="http://www.w3.org/2000/svg">
<path d="M16.587 2.52161V4.34186C16.4014 4.27272 16.2414 4.14849 16.1284 3.98581C16.0154 3.82314 15.9548 3.6298 15.9548 3.43173C15.9548 3.23366 16.0154 3.04032 16.1284 2.87765C16.2414 2.71497 16.4014 2.59074 16.587 2.52161ZM17.2647 6.96161C17.4503 6.89248 17.6103 6.76825 17.7234 6.60557C17.8364 6.44289 17.8969 6.24954 17.8969 6.05146C17.8969 5.85337 17.8364 5.66003 17.7234 5.49735C17.6103 5.33467 17.4503 5.21043 17.2647 5.14131V6.96161ZM20.2794 8.09532C19.5036 8.87166 18.4827 9.35499 17.3906 9.46296C16.2984 9.57092 15.2026 9.29684 14.2899 8.68742C13.3772 8.07799 12.704 7.17093 12.3851 6.1208C12.0662 5.07068 12.1213 3.94247 12.541 2.92842C12.9608 1.91437 13.7191 1.07723 14.6869 0.559657C15.6547 0.042083 16.772 -0.123901 17.8484 0.0899882C18.9248 0.303878 19.8938 0.884406 20.5902 1.73265C21.2865 2.58089 21.6672 3.64436 21.6674 4.74184C21.6681 5.36466 21.5459 5.98149 21.3077 6.55697C21.0695 7.13244 20.7201 7.65522 20.2794 8.09532ZM17.2647 4.43781V2.52156C17.4502 2.59088 17.6101 2.71517 17.7231 2.87781C17.836 3.04045 17.8967 3.2337 17.8969 3.43173C17.8969 3.52159 17.9326 3.60777 17.9961 3.67131C18.0597 3.73485 18.1459 3.77054 18.2357 3.77054C18.3256 3.77054 18.4118 3.73485 18.4753 3.67131C18.5388 3.60777 18.5745 3.52159 18.5745 3.43173C18.574 3.05341 18.4437 2.68673 18.2053 2.39301C17.9668 2.09928 17.6348 1.89632 17.2647 1.81806V1.24689C17.2647 1.15703 17.229 1.07085 17.1654 1.00731C17.1019 0.94377 17.0157 0.908074 16.9258 0.908074C16.836 0.908074 16.7498 0.94377 16.6863 1.00731C16.6227 1.07085 16.587 1.15703 16.587 1.24689V1.81806C16.2167 1.89589 15.8844 2.09874 15.6459 2.39256C15.4074 2.68638 15.2772 3.0533 15.2772 3.43173C15.2772 3.81016 15.4074 4.17708 15.6459 4.4709C15.8844 4.76472 16.2167 4.96757 16.587 5.0454V6.96161C16.4015 6.89231 16.2416 6.76805 16.1286 6.60544C16.0156 6.44282 15.9549 6.24959 15.9547 6.05157C15.9536 5.96241 15.9175 5.87726 15.8541 5.81458C15.7906 5.7519 15.7051 5.71675 15.6159 5.71675C15.5267 5.71675 15.4412 5.7519 15.3777 5.81458C15.3143 5.87726 15.2782 5.96241 15.2771 6.05157C15.2776 6.42989 15.4079 6.79657 15.6463 7.09029C15.8848 7.38402 16.2168 7.58699 16.5869 7.66525V8.23792C16.5869 8.32778 16.6226 8.41395 16.6862 8.47749C16.7497 8.54103 16.8359 8.57673 16.9257 8.57673C17.0156 8.57673 17.1018 8.54103 17.1653 8.47749C17.2289 8.41395 17.2646 8.32778 17.2646 8.23792V7.6651C17.6349 7.5873 17.9672 7.38446 18.2057 7.09064C18.4443 6.79682 18.5744 6.4299 18.5744 6.05146C18.5744 5.67302 18.4443 5.30609 18.2057 5.01227C17.9672 4.71845 17.6349 4.51562 17.2646 4.43781H17.2647ZM23.6673 11.0279L22.6335 10.374L21.6007 9.71832C21.5505 9.68645 21.4928 9.66835 21.4333 9.66585C21.3739 9.66336 21.3149 9.67655 21.2622 9.70411C21.2095 9.73166 21.165 9.77261 21.1331 9.82283C21.1012 9.87305 21.0832 9.93078 21.0807 9.9902L20.9805 12.4361C20.9787 12.4806 20.9857 12.525 21.0011 12.5667C21.0164 12.6085 21.0398 12.6468 21.07 12.6795C21.1002 12.7122 21.1365 12.7386 21.1769 12.7573C21.2173 12.776 21.2609 12.7865 21.3054 12.7883H21.3194C21.4069 12.7882 21.4909 12.7544 21.5539 12.6938C21.617 12.6332 21.6542 12.5506 21.6577 12.4632L21.7105 11.169C22.0135 11.8019 22.2161 12.4782 22.3109 13.1734C22.7609 16.4609 20.7043 19.6442 17.5269 20.5779C17.4842 20.5905 17.4444 20.6113 17.4098 20.6393C17.3751 20.6672 17.3463 20.7017 17.325 20.7407C17.3037 20.7798 17.2903 20.8226 17.2856 20.8669C17.2808 20.9111 17.2848 20.9559 17.2974 20.9985C17.3099 21.0412 17.3308 21.081 17.3587 21.1156C17.3866 21.1503 17.4211 21.1791 17.4602 21.2004C17.4992 21.2217 17.5421 21.2351 17.5863 21.2398C17.6306 21.2446 17.6753 21.2406 17.718 21.228C18.7382 20.9265 19.6818 20.4097 20.4854 19.7126C21.289 19.0155 21.9338 18.1542 22.3764 17.1868C22.819 16.2195 23.049 15.1684 23.0511 14.1046C23.0531 13.0408 22.8271 11.9889 22.3882 11.0199L23.305 11.6005C23.3809 11.6475 23.4723 11.6625 23.5592 11.6425C23.6462 11.6224 23.7217 11.5689 23.7694 11.4935C23.8172 11.418 23.8332 11.3268 23.8141 11.2397C23.7949 11.1525 23.7422 11.0764 23.6673 11.0279ZM9.77305 16.651C8.92837 16.6496 8.09045 16.8016 7.30006 17.0995C7.13931 17.7542 6.73962 18.3251 6.17947 18.7002C7.24373 19.0232 8.17595 19.6798 8.83856 20.5731C9.50117 21.4664 9.85907 22.549 9.85944 23.6612C9.8595 23.7766 9.84002 23.8912 9.80183 24H16.4458C16.5356 23.9998 16.6216 23.9641 16.6851 23.9006C16.7486 23.8371 16.7844 23.751 16.7846 23.6612C16.784 21.802 16.045 20.0191 14.7302 18.7045C13.4154 17.3899 11.6323 16.6513 9.77305 16.651ZM4.67773 14.4332C4.20971 14.4332 3.75617 14.5955 3.3944 14.8924C3.03262 15.1894 2.78499 15.6025 2.69369 16.0616C2.6024 16.5206 2.67309 16.9971 2.89372 17.4098C3.11435 17.8226 3.47128 18.1461 3.90368 18.3252C4.33607 18.5043 4.8172 18.5279 5.26507 18.3921C5.71293 18.2562 6.09984 17.9692 6.35986 17.5801C6.61988 17.191 6.73693 16.7237 6.69106 16.2579C6.6452 15.7922 6.43925 15.3567 6.10831 15.0257C5.9207 14.8375 5.6977 14.6882 5.45216 14.5865C5.20661 14.4848 4.94337 14.4327 4.67759 14.4332H4.67773ZM7.62664 10.7903C7.13093 11.2868 6.82268 11.9398 6.75442 12.6381C6.68615 13.3364 6.86208 14.0368 7.25224 14.6199C7.6424 15.2031 8.22266 15.6329 8.89418 15.8362C9.56569 16.0396 10.2869 16.0038 10.935 15.735C11.5831 15.4663 12.118 14.9811 12.4486 14.3622C12.7791 13.7434 12.8849 13.029 12.7479 12.3409C12.6109 11.6528 12.2395 11.0335 11.6971 10.5884C11.1547 10.1434 10.4748 9.90011 9.77319 9.9001C9.37434 9.89955 8.97933 9.97792 8.6109 10.1307C8.24248 10.2835 7.90792 10.5076 7.6265 10.7903H7.62664ZM4.67759 19.1569C4.08599 19.1568 3.50015 19.2733 2.95355 19.4996C2.40694 19.7259 1.91026 20.0577 1.49186 20.4759C1.07347 20.8942 0.741552 21.3908 0.515068 21.9373C0.288584 22.4838 0.171967 23.0696 0.171875 23.6612C0.172073 23.751 0.207834 23.8371 0.271333 23.9006C0.334831 23.9641 0.420894 23.9998 0.510688 24H8.84309C8.93288 23.9998 9.01893 23.9641 9.08242 23.9006C9.14591 23.8371 9.18166 23.751 9.18186 23.6612C9.18167 22.4667 8.70706 21.3211 7.86239 20.4764C7.01772 19.6318 5.87215 19.1571 4.67759 19.1569ZM4.11603 13.8132C4.15885 13.8545 4.21177 13.8837 4.26949 13.8981C4.32721 13.9124 4.38768 13.9113 4.44484 13.8948C4.50199 13.8784 4.5538 13.8472 4.59507 13.8044C4.63634 13.7616 4.66561 13.7086 4.67994 13.6509L5.26972 11.2768C5.29139 11.1896 5.27754 11.0973 5.23121 11.0204C5.18488 10.9434 5.10986 10.8879 5.02266 10.8663C4.93547 10.8446 4.84323 10.8584 4.76624 10.9048C4.68926 10.9511 4.63383 11.0261 4.61216 11.1133L4.33011 12.2484C4.25868 11.861 4.22117 11.4681 4.21803 11.0742C4.19 7.75651 6.63594 4.86189 9.9072 4.34101C9.99545 4.32635 10.0743 4.27738 10.1266 4.20479C10.1789 4.1322 10.2003 4.04188 10.1863 3.95353C10.1722 3.86519 10.1238 3.78599 10.0515 3.73321C9.97931 3.68044 9.88914 3.65837 9.8007 3.67182C8.81459 3.83014 7.87045 4.18539 7.02456 4.71639C6.17867 5.24739 5.44836 5.94327 4.87716 6.76255C4.30595 7.58182 3.90555 8.50772 3.69983 9.48505C3.4941 10.4624 3.48726 11.4711 3.67972 12.4511L2.825 11.6272C2.76032 11.5649 2.67351 11.5307 2.58368 11.5324C2.49384 11.534 2.40834 11.5713 2.34598 11.636C2.28363 11.7007 2.24952 11.7875 2.25116 11.8773C2.2528 11.9671 2.29007 12.0526 2.35475 12.115L4.11603 13.8132Z" fill="#00A3FF"/>
</svg>
