<svg width="24" height="24" viewBox="0 0 24 24" fill="none" xmlns="http://www.w3.org/2000/svg">
<g clip-path="url(#clip0_160_15841)">
<path d="M9.85714 7.49997L5.57143 9.28582V14.7141L9.85714 16.5V7.49997ZM2.57143 14.5714H4.71429V9.42854H2.57143C1.88944 9.42854 1.23539 9.69945 0.753154 10.1817C0.270918 10.6639 0 11.318 0 12C0 12.682 0.270918 13.336 0.753154 13.8182C1.23539 14.3005 1.88944 14.5714 2.57143 14.5714ZM3.85714 18.8571C4.08447 18.8571 4.30249 18.7668 4.46323 18.6061C4.62398 18.4453 4.71429 18.2273 4.71429 18V15.4285H3V18C3 18.2273 3.09031 18.4453 3.25105 18.6061C3.4118 18.7668 3.62981 18.8571 3.85714 18.8571ZM11.5714 18.8571C11.7988 18.8571 12.0168 18.7668 12.1775 18.6061C12.3383 18.4453 12.4286 18.2273 12.4286 18V5.99997C12.4286 5.77264 12.3383 5.55462 12.1775 5.39387C12.0168 5.23313 11.7988 5.14282 11.5714 5.14282C11.3441 5.14282 11.1261 5.23313 10.9653 5.39387C10.8046 5.55462 10.7143 5.77264 10.7143 5.99997V18C10.7143 18.2273 10.8046 18.4453 10.9653 18.6061C11.1261 18.7668 11.3441 18.8571 11.5714 18.8571Z" fill="#00FFC2"/>
<path d="M20.9989 2.5715C21.2356 2.5715 21.4275 2.37962 21.4275 2.14293C21.4275 1.90623 21.2356 1.71436 20.9989 1.71436C20.7622 1.71436 20.5703 1.90623 20.5703 2.14293C20.5703 2.37962 20.7622 2.5715 20.9989 2.5715Z" fill="#00FFC2"/>
<path d="M19.8906 5.78597C20.6021 6.07311 21.3966 6.07311 22.1081 5.78597C21.9961 5.59089 21.8346 5.42881 21.6399 5.3161C21.4452 5.20339 21.2243 5.14404 20.9993 5.14404C20.7744 5.14404 20.5534 5.20339 20.3588 5.3161C20.1641 5.42881 20.0026 5.59089 19.8906 5.78597Z" fill="#00FFC2"/>
<path d="M20.9989 11.5715C21.2356 11.5715 21.4275 11.3796 21.4275 11.1429C21.4275 10.9062 21.2356 10.7144 20.9989 10.7144C20.7622 10.7144 20.5703 10.9062 20.5703 11.1429C20.5703 11.3796 20.7622 11.5715 20.9989 11.5715Z" fill="#00FFC2"/>
<path d="M19.8906 14.786C20.6021 15.0731 21.3966 15.0731 22.1081 14.786C21.9961 14.5909 21.8346 14.4288 21.6399 14.3161C21.4452 14.2034 21.2243 14.144 20.9993 14.144C20.7744 14.144 20.5534 14.2034 20.3588 14.3161C20.1641 14.4288 20.0026 14.5909 19.8906 14.786Z" fill="#00FFC2"/>
<path d="M22.8479 5.35722C23.234 5.0551 23.5402 4.66287 23.7395 4.2149C23.9388 3.76694 24.0252 3.27693 23.991 2.78782C23.9569 2.29871 23.8033 1.82543 23.5437 1.40949C23.2842 0.993547 22.9265 0.647631 22.5021 0.402067C22.0778 0.156503 21.5996 0.0187891 21.1096 0.000997751C20.6197 -0.0167936 20.1328 0.0858808 19.6917 0.30002C19.2507 0.51416 18.8689 0.833225 18.5798 1.22925C18.2907 1.62527 18.1032 2.08616 18.0337 2.5715H15.8566C15.5156 2.5715 15.1886 2.70696 14.9474 2.94808C14.7063 3.1892 14.5709 3.51622 14.5709 3.85722V11.5715H13.2852V12.4286H14.5709V20.1429C14.5709 20.4839 14.7063 20.8109 14.9474 21.0521C15.1886 21.2932 15.5156 21.4286 15.8566 21.4286H18.0337C18.1446 22.1911 18.5445 22.8816 19.1506 23.3572C19.337 23.0315 19.6062 22.7609 19.9309 22.5727C20.2555 22.3844 20.6242 22.2853 20.9994 22.2853C21.3747 22.2853 21.7433 22.3844 22.068 22.5727C22.3927 22.7609 22.6618 23.0315 22.8483 23.3572C23.2344 23.055 23.5404 22.6628 23.7396 22.2148C23.9388 21.7669 24.0251 21.2769 23.991 20.7878C23.9568 20.2988 23.8032 19.8256 23.5436 19.4097C23.284 18.9938 22.9263 18.6479 22.502 18.4024C22.0776 18.1569 21.5995 18.0192 21.1096 18.0014C20.6197 17.9836 20.1328 18.0862 19.6918 18.3003C19.2508 18.5144 18.869 18.8335 18.5799 19.2294C18.2908 19.6254 18.1033 20.0862 18.0337 20.5715H15.8566C15.7429 20.5715 15.6339 20.5264 15.5535 20.446C15.4732 20.3656 15.428 20.2566 15.428 20.1429V12.4286H18.0337C18.1446 13.1911 18.5445 13.8816 19.1506 14.3572C19.337 14.0315 19.6062 13.7609 19.9309 13.5727C20.2555 13.3844 20.6242 13.2853 20.9994 13.2853C21.3747 13.2853 21.7433 13.3844 22.068 13.5727C22.3927 13.7609 22.6618 14.0315 22.8483 14.3572C23.2344 14.055 23.5404 13.6628 23.7396 13.2148C23.9388 12.7669 24.0251 12.2769 23.991 11.7878C23.9568 11.2988 23.8032 10.8256 23.5436 10.4097C23.284 9.99378 22.9263 9.64791 22.502 9.40239C22.0776 9.15686 21.5995 9.01917 21.1096 9.00138C20.6197 8.98359 20.1328 9.08624 19.6918 9.30034C19.2508 9.51444 18.869 9.83346 18.5799 10.2294C18.2908 10.6254 18.1033 11.0862 18.0337 11.5715H15.428V3.85722C15.428 3.74355 15.4732 3.63454 15.5535 3.55417C15.6339 3.4738 15.7429 3.42864 15.8566 3.42864H18.0337C18.1447 4.19113 18.5447 4.88169 19.151 5.35722C19.3373 5.03141 19.6063 4.76062 19.9309 4.57228C20.2555 4.38394 20.6242 4.28475 20.9994 4.28475C21.3747 4.28475 21.7433 4.38394 22.068 4.57228C22.3926 4.76062 22.6616 5.03141 22.8479 5.35722ZM20.9994 18.8572C21.3404 18.8572 21.6675 18.9927 21.9086 19.2338C22.1497 19.4749 22.2852 19.8019 22.2852 20.1429C22.2852 20.4839 22.1497 20.8109 21.9086 21.0521C21.6675 21.2932 21.3404 21.4286 20.9994 21.4286C20.6585 21.4286 20.3314 21.2932 20.0903 21.0521C19.8492 20.8109 19.7137 20.4839 19.7137 20.1429C19.7137 19.8019 19.8492 19.4749 20.0903 19.2338C20.3314 18.9927 20.6585 18.8572 20.9994 18.8572ZM20.9994 9.85722C21.3404 9.85722 21.6675 9.99268 21.9086 10.2338C22.1497 10.4749 22.2852 10.8019 22.2852 11.1429C22.2852 11.4839 22.1497 11.811 21.9086 12.0521C21.6675 12.2932 21.3404 12.4286 20.9994 12.4286C20.6585 12.4286 20.3314 12.2932 20.0903 12.0521C19.8492 11.811 19.7137 11.4839 19.7137 11.1429C19.7137 10.8019 19.8492 10.4749 20.0903 10.2338C20.3314 9.99268 20.6585 9.85722 20.9994 9.85722ZM20.9994 3.42864C20.6585 3.42864 20.3314 3.29319 20.0903 3.05207C19.8492 2.81095 19.7137 2.48392 19.7137 2.14293C19.7137 1.80194 19.8492 1.47491 20.0903 1.23379C20.3314 0.992675 20.6585 0.857216 20.9994 0.857216C21.3404 0.857216 21.6675 0.992675 21.9086 1.23379C22.1497 1.47491 22.2852 1.80194 22.2852 2.14293C22.2852 2.48392 22.1497 2.81095 21.9086 3.05207C21.6675 3.29319 21.3404 3.42864 20.9994 3.42864Z" fill="#00FFC2"/>
<path d="M20.9989 20.5715C21.2356 20.5715 21.4275 20.3796 21.4275 20.1429C21.4275 19.9062 21.2356 19.7144 20.9989 19.7144C20.7622 19.7144 20.5703 19.9062 20.5703 20.1429C20.5703 20.3796 20.7622 20.5715 20.9989 20.5715Z" fill="#00FFC2"/>
<path d="M20.9993 23.1431C20.7743 23.1433 20.5534 23.2028 20.3587 23.3157C20.1641 23.4286 20.0026 23.5908 19.8906 23.7859C20.6021 24.0731 21.3966 24.0731 22.1081 23.7859C21.9961 23.5908 21.8346 23.4286 21.64 23.3157C21.4453 23.2028 21.2243 23.1433 20.9993 23.1431Z" fill="#00FFC2"/>
</g>
<defs>
<clipPath id="clip0_160_15841">
<rect width="24" height="24" fill="white"/>
</clipPath>
</defs>
</svg>
