<svg width="24" height="24" viewBox="0 0 24 24" fill="none" xmlns="http://www.w3.org/2000/svg">
<path fill-rule="evenodd" clip-rule="evenodd" d="M2.24156 9.37307C2.24156 11.3549 3.85359 12.967 5.83641 12.967H18.4462C20.4272 12.967 22.0392 11.3549 22.0392 9.37307C22.0392 7.50885 20.5842 5.93478 18.7256 5.79041C18.6561 5.78481 18.5911 5.75372 18.543 5.70311C18.495 5.65249 18.4674 5.58593 18.4655 5.51619C18.4233 3.5315 16.7733 1.91713 14.7867 1.91713C13.808 1.91713 12.8841 2.29822 12.1903 2.9901C12.1593 3.02093 12.1216 3.0441 12.0801 3.05777C12.0386 3.07144 11.9945 3.07524 11.9513 3.06885C11.9079 3.06256 11.8667 3.04624 11.8308 3.02117C11.7949 2.9961 11.7653 2.96299 11.7445 2.92447C11.4691 2.41508 11.061 1.98965 10.5635 1.69324C10.066 1.39684 9.49755 1.24048 8.91844 1.24072C7.14797 1.24072 5.70609 2.68166 5.70609 4.45307C5.70609 4.78307 5.75578 5.10932 5.85516 5.4215C5.88188 5.504 5.86875 5.594 5.81859 5.66525C5.77078 5.7365 5.69062 5.7815 5.60437 5.78713C3.72 5.90807 2.24156 7.48307 2.24156 9.37307ZM18.6741 17.9212C18.3394 17.9212 18.068 17.6493 18.068 17.3151V13.529H17.5059V17.3151C17.5059 17.9596 18.03 18.4837 18.6741 18.4837H20.4352C20.5669 19.1849 21.1847 19.717 21.923 19.717C22.7588 19.717 23.4375 19.0378 23.4375 18.2024C23.4375 17.3671 22.7588 16.6879 21.923 16.6879C21.1847 16.6879 20.5673 17.2204 20.4352 17.9212H18.6741ZM13.7522 13.5295V17.9479C13.0523 18.0801 12.5189 18.697 12.5189 19.4357C12.5189 20.271 13.1995 20.9503 14.0353 20.9503C14.8688 20.9503 15.5498 20.271 15.5498 19.4357C15.5498 18.6965 15.0164 18.0801 14.3166 17.9479V13.5295H13.7522ZM9.96469 13.5295V19.7915C9.26484 19.9237 8.73141 20.5406 8.73141 21.2793C8.73141 22.1146 9.41203 22.7938 10.2459 22.7938C11.0817 22.7938 11.7623 22.1146 11.7623 21.2793C11.7623 20.5401 11.2289 19.9237 10.5272 19.7915V13.5295H9.96469ZM5.60719 17.9212H3.84609C3.71438 17.2199 3.09844 16.6879 2.35828 16.6879C1.5225 16.6879 0.84375 17.3676 0.84375 18.2024C0.84375 19.0378 1.5225 19.717 2.35828 19.717C3.09844 19.717 3.71391 19.1849 3.84609 18.4837H5.60719C6.25172 18.4837 6.77719 17.9596 6.77719 17.3151V13.529H6.21328V17.3151C6.21328 17.6493 5.94141 17.9212 5.60719 17.9212ZM5.96438 6.98713C5.97375 7.14228 5.85516 7.27588 5.70047 7.28572C4.60313 7.35603 3.7425 8.27291 3.7425 9.37354C3.7425 9.52869 3.61641 9.65479 3.46125 9.65479C3.30656 9.65479 3.18 9.52869 3.18 9.37354C3.18 7.97713 4.27172 6.81369 5.66578 6.72463C5.81906 6.71479 5.955 6.83197 5.96438 6.98713Z" fill="#00A52E"/>
</svg>
