<svg width="24" height="24" viewBox="0 0 24 24" fill="none" xmlns="http://www.w3.org/2000/svg">
<path d="M2.73375 14.0326C2.81618 14.0213 2.89989 14.0406 2.96901 14.0869C3.03813 14.1333 3.08785 14.2033 3.10875 14.2838C3.19527 14.6276 3.30297 14.9656 3.43125 15.296L6.56625 12.1613C6.40575 7.3786 12.1808 4.77647 15.6589 7.97672L18.0773 5.55797C17.8876 5.40741 17.7486 5.20243 17.6789 4.97055C17.6092 4.73868 17.6121 4.49102 17.6873 4.26085C17.7371 4.12244 17.8138 3.99523 17.9129 3.88649C18.012 3.77774 18.1316 3.6896 18.2648 3.6271C18.1517 3.5939 18.0336 3.5812 17.916 3.5896C17.7606 3.60018 17.6091 3.64338 17.4715 3.71639C17.3339 3.7894 17.2132 3.89058 17.1173 4.01335C17.0659 4.07935 16.9924 4.12448 16.9103 4.14034C16.8283 4.15621 16.7432 4.14173 16.671 4.0996C15.9266 3.65649 15.1222 3.32306 14.2826 3.1096C14.2019 3.08906 14.1316 3.03942 14.0852 2.97021C14.0388 2.90099 14.0197 2.81708 14.0314 2.7346C14.0492 2.58027 14.0344 2.42391 13.9878 2.2757C13.9412 2.12749 13.8639 1.99076 13.761 1.8744C13.658 1.75805 13.5317 1.66468 13.3903 1.60038C13.2489 1.53609 13.0955 1.5023 12.9401 1.50122H11.058C10.9026 1.50229 10.7492 1.53609 10.6077 1.60041C10.4663 1.66473 10.34 1.75813 10.237 1.87453C10.134 1.99092 10.0568 2.1277 10.0102 2.27596C9.96365 2.42421 9.94884 2.58061 9.96675 2.73497C9.97926 2.81756 9.96041 2.90184 9.91391 2.97124C9.86742 3.04063 9.79664 3.09012 9.7155 3.10997C8.87592 3.32343 8.07152 3.65687 7.32713 4.09997C7.25492 4.1421 7.16987 4.15658 7.08779 4.14072C7.00571 4.12485 6.93218 4.07972 6.88088 4.01372C6.78493 3.89141 6.66416 3.7908 6.52653 3.71852C6.3889 3.64624 6.23752 3.60393 6.08236 3.59436C5.92719 3.5848 5.77176 3.6082 5.6263 3.66303C5.48083 3.71786 5.34862 3.80287 5.23838 3.91247L3.91125 5.2396C3.80037 5.34916 3.71422 5.48118 3.65859 5.6268C3.60296 5.77242 3.57914 5.92826 3.58873 6.08385C3.59832 6.23944 3.6411 6.39117 3.71419 6.52885C3.78729 6.66654 3.889 6.78698 4.0125 6.8821C4.0785 6.9334 4.12363 7.00693 4.1395 7.08901C4.15536 7.17109 4.14088 7.25614 4.09875 7.32835C3.65564 8.07273 3.32221 8.87714 3.10875 9.71672C3.08845 9.7976 3.03885 9.86806 2.96958 9.91448C2.9003 9.96089 2.81627 9.97995 2.73375 9.96797C2.57917 9.94865 2.42225 9.96246 2.27343 10.0085C2.1246 10.0545 1.98726 10.1316 1.87056 10.2348C1.75386 10.338 1.66046 10.4649 1.59657 10.6069C1.53267 10.749 1.49976 10.9031 1.5 11.0588V12.941C1.50096 13.0964 1.53467 13.2499 1.59895 13.3914C1.66324 13.5329 1.75664 13.6593 1.87306 13.7623C1.98948 13.8652 2.12631 13.9425 2.27462 13.989C2.42292 14.0355 2.57937 14.0506 2.73375 14.0326ZM21.2644 9.9676C21.1819 9.97958 21.0978 9.96052 21.0285 9.9141C20.9593 9.86769 20.9097 9.79722 20.8894 9.71635C20.8029 9.37251 20.6952 9.03437 20.5669 8.70385L17.4323 11.8388C17.5943 16.6163 11.8185 19.2275 8.34338 16.0235L4.75463 19.6043L5.23838 20.0881C5.34862 20.1977 5.48083 20.2827 5.6263 20.3375C5.77176 20.3924 5.92719 20.4158 6.08236 20.4062C6.23752 20.3966 6.3889 20.3543 6.52653 20.282C6.66416 20.2098 6.78493 20.1092 6.88088 19.9868C6.93218 19.9208 7.00571 19.8757 7.08779 19.8599C7.16987 19.844 7.25492 19.8585 7.32713 19.9006C8.07163 20.3438 8.87616 20.6772 9.71588 20.8906C9.79658 20.9112 9.86684 20.9609 9.9132 21.0301C9.95956 21.0993 9.97877 21.1831 9.96713 21.2656C9.94927 21.4199 9.96411 21.5762 10.0107 21.7244C10.0572 21.8726 10.1345 22.0093 10.2374 22.1257C10.3403 22.242 10.4666 22.3354 10.6079 22.3997C10.7493 22.464 10.9027 22.4978 11.058 22.499H12.9405C13.0959 22.4979 13.2493 22.4641 13.3908 22.3998C13.5322 22.3355 13.6585 22.2421 13.7615 22.1257C13.8645 22.0093 13.9417 21.8725 13.9883 21.7242C14.0349 21.576 14.0497 21.4196 14.0318 21.2652C14.0192 21.1826 14.0381 21.0984 14.0846 21.029C14.1311 20.9596 14.2019 20.9101 14.283 20.8902C15.1225 20.6767 15.9267 20.3433 16.671 19.9002C16.7432 19.8581 16.8283 19.8436 16.9103 19.8595C16.9924 19.8753 17.0659 19.9205 17.1173 19.9865C17.2132 20.1088 17.334 20.2094 17.4716 20.2817C17.6092 20.354 17.7606 20.3963 17.9158 20.4058C18.0709 20.4154 18.2264 20.392 18.3718 20.3372C18.5173 20.2823 18.6495 20.1973 18.7598 20.0877L20.0873 18.7606C20.1981 18.651 20.2843 18.519 20.3399 18.3734C20.3955 18.2278 20.4194 18.0719 20.4098 17.9163C20.4002 17.7608 20.3574 17.609 20.2843 17.4713C20.2112 17.3337 20.1095 17.2132 19.986 17.1181C19.92 17.0668 19.8749 16.9933 19.859 16.9112C19.8431 16.8291 19.8576 16.7441 19.8998 16.6718C20.3429 15.9275 20.6763 15.1231 20.8898 14.2835C20.9107 14.2031 20.9604 14.1331 21.0294 14.0868C21.0984 14.0405 21.182 14.0211 21.2644 14.0322C21.419 14.0515 21.5759 14.0377 21.7248 13.9917C21.8736 13.9457 22.011 13.8685 22.1277 13.7652C22.2444 13.662 22.3378 13.5351 22.4017 13.393C22.4655 13.2509 22.4984 13.0968 22.4981 12.941V11.0588C22.4971 10.9034 22.4634 10.75 22.3991 10.6085C22.3348 10.467 22.2414 10.3407 22.1249 10.2377C22.0085 10.1347 21.8717 10.0575 21.7234 10.0109C21.5752 9.96439 21.4187 9.94962 21.2644 9.9676Z" fill="#FF6B00"/>
<path d="M13.2682 14.4112C13.3029 14.4465 13.3444 14.4745 13.3901 14.4936C13.4358 14.5127 13.4849 14.5226 13.5344 14.5226C13.584 14.5226 13.633 14.5127 13.6787 14.4936C13.7244 14.4745 13.7659 14.4465 13.8007 14.4112L20.8987 7.31242L21.5512 7.96867C21.6019 8.0183 21.6656 8.05267 21.7349 8.06787C21.8042 8.08307 21.8764 8.07849 21.9433 8.05464C22.0101 8.0308 22.0689 7.98865 22.1129 7.933C22.157 7.87736 22.1845 7.81046 22.1924 7.73992L22.4999 4.3653C22.5043 4.3105 22.4968 4.2554 22.4778 4.2038C22.4588 4.15221 22.4289 4.10535 22.39 4.06648C22.3511 4.0276 22.3043 3.99764 22.2527 3.97866C22.2011 3.95968 22.146 3.95213 22.0912 3.95655L18.7162 4.26405C18.6458 4.27131 18.5788 4.29823 18.523 4.34173C18.4672 4.38523 18.4247 4.44356 18.4004 4.51005C18.3762 4.57654 18.3711 4.64852 18.3858 4.71775C18.4006 4.78698 18.4345 4.85067 18.4837 4.90155L19.1399 5.5578L13.5348 11.1637L11.3448 8.97367C11.3101 8.93897 11.2689 8.91143 11.2236 8.89265C11.1783 8.87386 11.1297 8.86419 11.0806 8.86419C11.0315 8.86419 10.9829 8.87386 10.9376 8.89265C10.8923 8.91143 10.8511 8.93897 10.8164 8.97367L1.61091 18.1758C1.54224 18.2474 1.50391 18.3428 1.50391 18.442C1.50391 18.5413 1.54224 18.6367 1.61091 18.7083L2.84091 19.9345C2.8756 19.9693 2.91681 19.9969 2.96217 20.0157C3.00754 20.0345 3.05617 20.0442 3.10528 20.0442C3.1544 20.0442 3.20303 20.0345 3.24839 20.0157C3.29376 19.9969 3.33497 19.9693 3.36966 19.9345L11.0819 12.2249L13.2682 14.4112Z" fill="#FF6B00"/>
</svg>
