<svg width="32" height="28" viewBox="0 0 32 28" fill="none" xmlns="http://www.w3.org/2000/svg">
<path fill-rule="evenodd" clip-rule="evenodd" d="M11.9996 10.7996C12.9544 10.7996 13.8701 10.4203 14.5452 9.74519C15.2203 9.07006 15.5996 8.15439 15.5996 7.19961C15.5996 6.24483 15.2203 5.32916 14.5452 4.65403C13.8701 3.97889 12.9544 3.59961 11.9996 3.59961C11.0448 3.59961 10.1292 3.97889 9.45403 4.65403C8.77889 5.32916 8.39961 6.24483 8.39961 7.19961C8.39961 8.15439 8.77889 9.07006 9.45403 9.74519C10.1292 10.4203 11.0448 10.7996 11.9996 10.7996ZM3.59961 21.5996C3.59961 20.4965 3.81688 19.4042 4.23902 18.3851C4.66116 17.3659 5.2799 16.4399 6.05991 15.6599C6.83992 14.8799 7.76593 14.2612 8.78507 13.839C9.8042 13.4169 10.8965 13.1996 11.9996 13.1996C13.1027 13.1996 14.195 13.4169 15.2142 13.839C16.2333 14.2612 17.1593 14.8799 17.9393 15.6599C18.7193 16.4399 19.3381 17.3659 19.7602 18.3851C20.1823 19.4042 20.3996 20.4965 20.3996 21.5996H3.59961Z" fill="#00A3FF"/>
<path d="M23.5 26.4375C25.3399 26.4375 27.1045 25.7066 28.4056 24.4056C29.7066 23.1045 30.4375 21.3399 30.4375 19.5C30.4375 17.6601 29.7066 15.8955 28.4056 14.5944C27.1045 13.2934 25.3399 12.5625 23.5 12.5625C21.6601 12.5625 19.8955 13.2934 18.5944 14.5944C17.2934 15.8955 16.5625 17.6601 16.5625 19.5C16.5625 21.3399 17.2934 23.1045 18.5944 24.4056C19.8955 25.7066 21.6601 26.4375 23.5 26.4375Z" fill="#00A3FF" stroke="#06050A" stroke-width="1.875"/>
</svg>
