<svg width="36" height="26" viewBox="0 0 36 26" fill="none" xmlns="http://www.w3.org/2000/svg">
<path d="M11.9864 19.4037V6.74219L25.0547 13.1744L11.9864 19.4037Z" fill="white"/>
<path d="M28.5233 0.168091H7.47674C3.34745 0.168091 0 3.51554 0 7.64483V18.1659C0 22.2952 3.34745 25.6426 7.47674 25.6426H28.5233C32.6526 25.6426 36 22.2952 36 18.1659V7.64483C36 3.51554 32.6526 0.168091 28.5233 0.168091ZM23.4668 13.4172L13.6227 18.1123C13.3603 18.2374 13.0574 18.0462 13.0574 17.7556V8.07199C13.0574 7.77727 13.3683 7.58626 13.6312 7.71948L23.4753 12.708C23.768 12.8563 23.7629 13.276 23.4668 13.4172Z" fill="#F61C0D"/>
</svg>
